<?xml version="1.0" encoding="utf-8"?>
<!-- Generator: Adobe Illustrator 18.0.0, SVG Export Plug-In . SVG Version: 6.00 Build 0)  -->
<!DOCTYPE svg PUBLIC "-//W3C//DTD SVG 1.1//EN" "http://www.w3.org/Graphics/SVG/1.1/DTD/svg11.dtd">
<svg version="1.1" id="Layer_1" xmlns="http://www.w3.org/2000/svg" xmlns:xlink="http://www.w3.org/1999/xlink" x="0px" y="0px"
	 viewBox="0 0 70 70" enable-background="new 0 0 70 70" xml:space="preserve">
<path fill="#07DDCD" d="M34.9,0C15.6,0,0,15.6,0,34.9c0,19.3,15.6,34.9,34.9,34.9c19.3,0,34.9-15.6,34.9-34.9
	C69.9,15.6,54.3,0,34.9,0z M46.6,19.6c0,0-6.1-0.2-7.7,0.7c-1.2,0.5-1.6,1.9-1.6,3c0,4,0,7,0,7h9.1l-1.4,7h-7.7v21H28v-21h-7v-7h7
	c0,0,0-5.1,0-8.2c0-3.3,2.1-10.5,9.8-10.5c7.7,0,8.9,0,8.9,0V19.6z"/>
</svg>
