<?xml version="1.0" encoding="utf-8"?>
<!-- Generator: Adobe Illustrator 18.0.0, SVG Export Plug-In . SVG Version: 6.00 Build 0)  -->
<!DOCTYPE svg PUBLIC "-//W3C//DTD SVG 1.1//EN" "http://www.w3.org/Graphics/SVG/1.1/DTD/svg11.dtd">
<svg version="1.1" id="Layer_1" xmlns="http://www.w3.org/2000/svg" xmlns:xlink="http://www.w3.org/1999/xlink" x="0px" y="0px"
	 viewBox="0 0 110 110" enable-background="new 0 0 110 110" xml:space="preserve">
<g>
	<path fill="#CCD2E2" d="M108,60.9c-0.9,0-1.6,0.7-1.6,1.6v12H94.6V36.7v-6.5v-6.6c0-0.9-0.7-1.6-1.6-1.6H81c-0.9,0-1.6,0.7-1.6,1.6
		v6.6v6.5v37.9h-6v-8.2v-6.5v-6.6c0-0.9-0.7-1.6-1.6-1.6h-12c-0.9,0-1.6,0.7-1.6,1.6v6.6v6.5v8.2h-6V45.8v-6.5v-6.6
		c0-0.9-0.7-1.6-1.6-1.6h-12c-0.9,0-1.6,0.7-1.6,1.6v6.6v6.5v9c0,0.9,0.7,1.6,1.6,1.6s1.6-0.7,1.6-1.6v-7.4H49v27.2h-8.8V61.1
		c0-0.9-0.7-1.6-1.6-1.6s-1.6,0.7-1.6,1.6v13.5h-6v-8.2v-6.5v-6.6c0-0.9-0.7-1.6-1.6-1.6h-12c-0.9,0-1.6,0.7-1.6,1.6v6.6v6.5v8.2
		H3.6V34.8c0-0.9-0.7-1.6-1.6-1.6s-1.6,0.7-1.6,1.6v53c0,0,0,0,0,0c0,0,0,0,0,0l0,0c0,2.6,2.2,4.8,4.8,4.8h35.1l-0.9,8h-7.6
		c-0.9,0-1.6,0.7-1.6,1.6v5.6c0,0.9,0.7,1.6,1.6,1.6h46.6c0.9,0,1.6-0.7,1.6-1.6v-5.6c0-0.9-0.7-1.6-1.6-1.6h-7.6l-0.9-8h35.1
		c2.6,0,4.8-2.2,4.8-4.8l0,0c0,0,0-11.6,0-11.6c0,0,0,0,0,0V62.5C109.6,61.7,108.9,60.9,108,60.9z M49,34.2v3.4h-8.8v-3.4H49z
		 M40.1,44.2v-3.3H49v3.3H40.1z M82.6,31.7h8.8v3.3h-8.8V31.7z M91.4,25.1v3.4h-8.8v-3.4L91.4,25.1z M82.6,38.3h8.8v36.3h-8.8V38.3z
		 M61.4,61.5h8.8v3.3h-8.8V61.5z M70.2,54.9v3.4h-8.8v-3.4H70.2z M61.4,68h8.8v6.6h-8.8V68z M18.9,61.5h8.8v3.3h-8.8V61.5z
		 M27.7,54.9v3.4h-8.8v-3.4H27.7z M18.9,68h8.8v6.6h-8.8V68z M76.7,103.8v2.4H33.3v-2.4l0,0H76.7L76.7,103.8z M42.5,100.6l0.9-8
		h23.1l0.9,8H42.5z M106.4,87.8c0,0.9-0.7,1.6-1.6,1.6l0,0H5.2l0,0c-0.9,0-1.6-0.7-1.6-1.6v-9.9h102.9L106.4,87.8L106.4,87.8z"/>
	<path fill="#CCD2E2" d="M39.6,11.8H5.2c-2.6,0-4.8,2.2-4.8,4.8v11.8C0.4,29.3,1.1,30,2,30s1.6-0.7,1.6-1.6V16.6
		c0-0.9,0.7-1.6,1.6-1.6h34.4V11.8z"/>
	<polygon fill="#CCD2E2" points="96,11.8 47.9,11.8 47.9,15 93.2,15 	"/>
	<g>
		<path fill="#07DDCD" d="M85.7,0c-3.4,0-6.1,2.7-6.1,6.1c0,1.4,0.5,2.6,1.2,3.7l-2.2,2L75.2,15l-6.7,6.1c-1-0.7-2.2-1.1-3.5-1.1
			c-1.8,0-3.4,0.8-4.5,2l-10.8-6.4c0-0.1,0-0.1,0-0.2h0c0.1-0.4,0.1-0.8,0.1-1.2c0-0.9-0.2-1.7-0.5-2.4c0-0.1-0.1-0.1-0.1-0.2
			c-0.1-0.2-0.2-0.4-0.3-0.6h0c-1.1-1.7-3-2.9-5.2-2.9c-2.2,0-4.1,1.2-5.2,2.9h0c-0.1,0.2-0.2,0.4-0.3,0.6c0,0.1-0.1,0.1-0.1,0.2
			c-0.3,0.7-0.5,1.6-0.5,2.4c0,0.3,0,0.6,0.1,0.9c0,0.1,0.1,0.2,0.1,0.4c0,0.2,0.1,0.4,0.1,0.6c0.1,0.2,0.2,0.5,0.3,0.7L24.7,28.9
			c-1-0.6-2.1-1-3.3-1c-3.3,0-6.1,2.7-6.1,6.1s2.7,6.1,6.1,6.1c3.3,0,6.1-2.7,6.1-6.1c0-1-0.2-1.9-0.6-2.7l13.5-12.2
			c1,0.7,2.2,1.1,3.4,1.1c1.7,0,3.3-0.7,4.4-1.9L59,24.8c-0.1,0.4-0.1,0.8-0.1,1.2c0,3.3,2.7,6.1,6.1,6.1c3.3,0,6.1-2.7,6.1-6.1
			c0-0.9-0.2-1.7-0.5-2.4l13-11.9l0,0c0.7,0.3,1.4,0.4,2.2,0.4c3.4,0,6.1-2.7,6.1-6.1S89.1,0,85.7,0z M21.4,36.9
			c-1.6,0-2.9-1.3-2.9-2.9c0-1.6,1.3-2.9,2.9-2.9c1.6,0,2.9,1.3,2.9,2.9C24.2,35.6,22.9,36.9,21.4,36.9z M43.7,17
			c-1.6,0-2.9-1.3-2.9-2.9s1.3-2.9,2.9-2.9c1.6,0,2.9,1.3,2.9,2.9S45.3,17,43.7,17z M64.9,28.9c-1.6,0-2.9-1.3-2.9-2.9
			s1.3-2.9,2.9-2.9c1.6,0,2.9,1.3,2.9,2.9S66.5,28.9,64.9,28.9z M85.7,8.9c-1.6,0-2.9-1.3-2.9-2.9s1.3-2.9,2.9-2.9s2.9,1.3,2.9,2.9
			S87.3,8.9,85.7,8.9z"/>
		<path fill="#CCD2E2" d="M104.8,11.8H90.9V15h13.9c0.9,0,1.6,0.7,1.6,1.6v39.6c0,0.9,0.7,1.6,1.6,1.6c0.9,0,1.6-0.7,1.6-1.6V16.6
			C109.6,13.9,107.5,11.8,104.8,11.8z"/>
	</g>
</g>
</svg>
