<?xml version="1.0" encoding="utf-8"?>
<!-- Generator: Adobe Illustrator 18.0.0, SVG Export Plug-In . SVG Version: 6.00 Build 0)  -->
<!DOCTYPE svg PUBLIC "-//W3C//DTD SVG 1.1//EN" "http://www.w3.org/Graphics/SVG/1.1/DTD/svg11.dtd">
<svg version="1.1" id="Layer_1" xmlns="http://www.w3.org/2000/svg" xmlns:xlink="http://www.w3.org/1999/xlink" x="0px" y="0px"
	 viewBox="0 0 110 110" enable-background="new 0 0 110 110" xml:space="preserve">
<path fill="#CCD2E2" d="M110,106.6V85.1c0-0.3-0.2-0.5-0.5-0.5h-2.3v0h-9.9c-0.3,0-0.5-0.2-0.5-0.5V71.9h0c0-0.2,0-0.4-0.1-0.6
	c-0.4-1-1.7-1.3-2.6-0.6c-0.8,0.6-0.8,1.1-0.7,1.5v11.9c0,0.3-0.2,0.5-0.5,0.5h-3.5c-0.3,0-0.5-0.2-0.5-0.5V69.6v-1.7v-1.2
	c0-0.3-0.2-0.5-0.5-0.5H74.4c-0.3,0-0.5-0.2-0.5-0.5v-3c0-0.1-0.1-0.3-0.2-0.4L57.1,46.6c-0.1-0.1-0.2-0.2-0.2-0.4V34.7
	c0-0.1,0-0.1,0-0.2c0-0.1,0-0.2,0-0.3c0-0.9-0.8-1.7-1.7-1.7c-0.9,0-1.7,0.8-1.7,1.7c0,0.1,0,0.2,0,0.3c0,0.1,0,0.1,0,0.2v64.7
	c0,0.3-0.2,0.5-0.5,0.5h-3.2c-0.3,0-0.5-0.2-0.5-0.5V47.6c0-0.1,0-0.1,0-0.2c0-0.1,0-0.2,0-0.3c0-0.9-0.8-1.7-1.7-1.7
	s-1.7,0.8-1.7,1.7c0,0.1,0,0.2,0,0.3c0,0.1,0,0.1,0,0.2v11.6c0,0.1-0.1,0.3-0.2,0.4L33.4,70.7c-0.6,0.5-0.9,1.2-0.9,2V88
	c0,0.3-0.2,0.5-0.5,0.5h-3.2c-0.3,0-0.5-0.2-0.5-0.5V75.7c0-1.3-1.2-2.2-2.5-1.9l-24.1,7c-1,0.3-1.6,1.2-1.6,2.2v23.6v1.4
	c0,1.1,0.9,2.1,2.1,2.1h1.4h2.4h3.4h97.3h3.4h0L110,106.6L110,106.6z M6.3,88.5c-0.3,0-0.5,0.2-0.5,0.5v17c0,0.3-0.2,0.5-0.5,0.5H4
	c-0.3,0-0.5-0.2-0.5-0.5V84.2c0-0.2,0.2-0.4,0.4-0.5l20.3-5.9c0.3-0.1,0.7,0.2,0.7,0.5V88c0,0.3-0.2,0.5-0.5,0.5L6.3,88.5z
	 M35.9,99.3c0,0.3-0.2,0.5-0.5,0.5H14.8v0c-0.9,0-1.7,0.8-1.7,1.7c0,0.9,0.8,1.7,1.7,1.7c0,0,0.1,0,0.1,0h20.4
	c0.3,0,0.5,0.2,0.5,0.5v2.2c0,0.3-0.2,0.5-0.5,0.5H9.8c-0.3,0-0.5-0.2-0.5-0.5V92.4c0-0.3,0.2-0.5,0.5-0.5h25.6
	c0.3,0,0.5,0.2,0.5,0.5V99.3z M45.8,106c0,0.3-0.2,0.5-0.5,0.5h-5.4c-0.3,0-0.5-0.2-0.5-0.5V90.9c0-1.3-1.1-2.4-2.4-2.4h-0.5
	c-0.3,0-0.5-0.2-0.5-0.5V73.3c0-0.1,0.1-0.3,0.2-0.4l8.9-8.1c0.3-0.3,0.9-0.1,0.9,0.4V106z M53.5,106c0,0.3-0.2,0.5-0.5,0.5h-3.2
	c-0.3,0-0.5-0.2-0.5-0.5v-2.2c0-0.3,0.2-0.5,0.5-0.5H53c0.3,0,0.5,0.2,0.5,0.5V106z M70.5,106c0,0.3-0.2,0.5-0.5,0.5H57.4
	c-0.3,0-0.5-0.2-0.5-0.5V52.4c0-0.5,0.5-0.7,0.9-0.4l12.6,11.8c0.1,0.1,0.2,0.2,0.2,0.4V106z M84.9,84.6h-1.4h-1
	c-0.3,0-0.5,0.2-0.5,0.5v21c0,0.3-0.2,0.5-0.5,0.5h-7.1c-0.3,0-0.5-0.2-0.5-0.5V70.2c0-0.3,0.2-0.5,0.5-0.5h10.5
	c0.3,0,0.5,0.2,0.5,0.5v13.9C85.5,84.3,85.2,84.6,84.9,84.6z M106.6,106c0,0.3-0.2,0.5-0.5,0.5H86c-0.3,0-0.5-0.2-0.5-0.5v-2.2
	c0-0.3,0.2-0.5,0.5-0.5h14.7c0,0,0,0,0,0s0,0,0,0h0v0c0.9,0,1.7-0.8,1.7-1.7c0-0.9-0.7-1.7-1.7-1.7v0H86c-0.3,0-0.5-0.2-0.5-0.5
	V88.5c0-0.3,0.2-0.5,0.5-0.5H106c0.3,0,0.5,0.2,0.5,0.5V106z"/>
<g>
	<path fill="#07DDCD" stroke="#07DDCD" stroke-width="1.503" stroke-miterlimit="10" d="M52.7,17.6c-1.3,1.3-1.3,3.4,0,4.7
		c0.6,0.6,1.5,1,2.3,1c0.8,0,1.7-0.3,2.3-1c1.3-1.3,1.3-3.4,0-4.7C56.1,16.4,53.9,16.4,52.7,17.6z"/>
	<path fill="#07DDCD" stroke="#07DDCD" stroke-width="1.503" stroke-miterlimit="10" d="M47,12c-0.4,0.4-0.4,1,0,1.4
		c0.4,0.4,1,0.4,1.4,0c3.6-3.6,9.5-3.6,13.1,0c0.2,0.2,0.5,0.3,0.7,0.3c0.3,0,0.5-0.1,0.7-0.3c0.4-0.4,0.4-1,0-1.4
		C58.6,7.5,51.4,7.5,47,12z"/>
	<path fill="#07DDCD" stroke="#07DDCD" stroke-width="1.503" stroke-miterlimit="10" d="M41.1,6c-0.4,0.4-0.4,1,0,1.4
		c0.4,0.4,1,0.4,1.4,0c6.9-6.9,18.1-6.9,25,0c0.2,0.2,0.5,0.3,0.7,0.3c0.3,0,0.5-0.1,0.7-0.3c0.4-0.4,0.4-1,0-1.4
		C61.2-1.6,48.8-1.6,41.1,6z"/>
</g>
</svg>
