<?xml version="1.0" encoding="utf-8"?>
<!-- Generator: Adobe Illustrator 18.0.0, SVG Export Plug-In . SVG Version: 6.00 Build 0)  -->
<!DOCTYPE svg PUBLIC "-//W3C//DTD SVG 1.1//EN" "http://www.w3.org/Graphics/SVG/1.1/DTD/svg11.dtd">
<svg version="1.1" id="Layer_1" xmlns="http://www.w3.org/2000/svg" xmlns:xlink="http://www.w3.org/1999/xlink" x="0px" y="0px"
	 viewBox="0 0 110 110" enable-background="new 0 0 110 110" xml:space="preserve">
<path fill="#CCD2E2" d="M91.2,82.8c-0.8-0.4-1.9-0.1-2.3,0.7c-0.1,0.2-0.2,0.4-0.3,0.6h-6.9c0.8-2.1,1.4-4.2,1.9-6.5
	c0.2-0.9-0.4-1.8-1.3-2.1c-0.9-0.2-1.8,0.4-2.1,1.3c-0.6,2.5-1.4,4.9-2.3,7.3H64.8c0.9-6,1.5-12.5,1.5-18.9H75
	c0.9,0,1.7-0.8,1.7-1.7c0-0.9-0.8-1.7-1.7-1.7h-8.6c-0.1-7.1-0.7-14.2-1.8-20.6h12.8c0.8,1.8,1.5,3.7,2.1,5.7
	c0.2,0.7,0.9,1.2,1.6,1.2c0.2,0,0.3,0,0.5-0.1c0.9-0.3,1.4-1.2,1.1-2.1c-0.5-1.6-1-3.2-1.6-4.7h6.6c0.2,0.3,0.3,0.6,0.5,0.9
	c0.3,0.6,0.9,0.9,1.5,0.9c0.3,0,0.6-0.1,0.9-0.2c0.8-0.5,1.1-1.5,0.6-2.3c-0.2-0.4-0.5-0.8-0.7-1.2c-0.1-0.5-0.3-0.9-0.7-1.1
	C85.8,32,80.6,27,74.4,23.4C67.3,19.2,59.2,17,50.9,17c-3.6,0-7.2,0.4-10.7,1.2c-0.9,0.2-1.5,1.1-1.3,2.1c0.2,0.9,1.1,1.5,2.1,1.3
	c1.1-0.3,2.2-0.5,3.4-0.7c-2.8,3.7-5,9.7-6.4,16.7H23.8c-0.3-0.1-0.5-0.1-0.8,0h-6.5c0.4-0.6,0.9-1.1,1.3-1.7
	c0.6-0.7,0.5-1.8-0.2-2.4c-0.7-0.6-1.8-0.5-2.4,0.2c-1.1,1.3-2.1,2.7-3.1,4.2c-0.4,0.3-0.6,0.7-0.7,1.1c-4.5,7.3-6.9,15.7-6.9,24.3
	c0,12.4,4.8,24,13.6,32.8c8.8,8.8,20.4,13.6,32.8,13.6c17.3,0,33-9.5,41.1-24.7C92.4,84.3,92.1,83.2,91.2,82.8L91.2,82.8z
	 M76.5,87.5c-2,4.1-4.5,7.7-7.4,10.7c-3.4,3.4-7.2,5.8-11.2,7.1c2.8-4,4.9-10.4,6.3-17.8H76.5z M63.9,37.7c-1.4-6.7-3.4-12.4-6-16.1
	c7.1,2.3,13.4,8,17.8,16.1H63.9z M72.7,26.4c4.9,2.9,9.2,6.7,12.6,11.3h-5.8c-2.5-5-5.6-9.2-9.2-12.5C71.1,25.5,71.9,25.9,72.7,26.4
	L72.7,26.4z M43.7,29.7c2.1-5.8,4.8-9.2,7.2-9.2c2.8,0,5.8,4.4,8.1,11.9c0.5,1.7,1,3.4,1.4,5.3H41.4C42.1,34.7,42.9,32,43.7,29.7
	L43.7,29.7z M37.3,56.6c0.9,0.1,1.8-0.7,1.8-1.6c0.3-4.9,0.8-9.6,1.6-13.9h20.3c1.1,6.2,1.8,13.3,1.9,20.6h-8.6
	c-0.9,0-1.7,0.8-1.7,1.7c0,0.9,0.8,1.7,1.7,1.7h8.6c-0.1,6.7-0.6,13.1-1.6,18.9h-7c-0.9,0-1.7,0.8-1.7,1.7c0,0.9,0.8,1.7,1.7,1.7
	h6.4c-0.5,2.5-1.1,4.9-1.8,7c-2.3,7.4-5.3,11.9-8.1,11.9c-2.3,0-4.9-3.2-7-8.7c-0.3-0.9-1.3-1.3-2.2-1c-0.9,0.3-1.3,1.3-1,2.2
	c1,2.7,2.1,4.8,3.2,6.4c-7.7-2.5-14.3-9-18.7-17.8c0.9-0.1,1.6-0.8,1.6-1.7c0-0.9-0.8-1.7-1.7-1.7h-1.4C21.5,78.4,20.2,72,20,65.2
	h3.4c0.9,0,1.7-0.8,1.7-1.7c0-0.9-0.8-1.7-1.7-1.7H20c0.2-7.3,1.8-14.4,4.5-20.6h12.8c-0.8,4.4-1.3,9-1.6,13.6
	C35.6,55.7,36.4,56.5,37.3,56.6L37.3,56.6z M8,65.2h8.6c0.2,6.7,1.4,13.1,3.5,18.9h-6.9C10.1,78.4,8.3,72,8,65.2L8,65.2z M20.8,41.1
	c-2.6,6.3-4,13.4-4.2,20.6H8c0.3-7.3,2.5-14.4,6.2-20.6H20.8z M15.3,87.5h6.2c1.4,3.1,3,5.9,4.9,8.6c1.6,2.1,3.2,4,5,5.7
	C25,98.4,19.4,93.5,15.3,87.5L15.3,87.5z M70.3,101.8c0.4-0.4,0.8-0.8,1.3-1.2c3.6-3.6,6.5-8,8.8-13.1h6.2
	C82.4,93.7,76.7,98.5,70.3,101.8L70.3,101.8z M70.3,101.8"/>
<path fill="#07DDCD" d="M22.4,33.9c0.3,0.2,0.6,0.3,1,0.3c0.4,0,0.7-0.1,1-0.3c0.5-0.4,12.7-9.4,12.7-20.3C37.2,6,31-0.2,23.4-0.2
	C15.8-0.2,9.7,6,9.7,13.6C9.7,24.7,21.9,33.5,22.4,33.9L22.4,33.9z M23.4,3.3c5.7,0,10.3,4.6,10.3,10.3c0,7.5-7.6,14.4-10.3,16.7
	c-2.8-2.3-10.3-9.1-10.3-16.7C13.1,7.9,17.7,3.3,23.4,3.3L23.4,3.3z M23.4,3.3"/>
<path fill="#07DDCD" d="M30.3,13.6c0-0.9-0.8-1.7-1.7-1.7c-0.9,0-1.7,0.8-1.7,1.7c0,1.9-1.5,3.4-3.4,3.4c-1.9,0-3.4-1.5-3.4-3.4
	c0-1.9,1.5-3.4,3.4-3.4c0.9,0,1.7-0.8,1.7-1.7c0-0.9-0.8-1.7-1.7-1.7c-3.8,0-6.9,3.1-6.9,6.9c0,3.8,3.1,6.9,6.9,6.9
	C27.2,20.5,30.3,17.4,30.3,13.6L30.3,13.6z M30.3,13.6"/>
<path fill="#07DDCD" d="M93.5,46.2c-7.6,0-13.7,6.2-13.7,13.7c0,11.1,12.2,19.9,12.8,20.3c0.3,0.2,0.6,0.3,1,0.3
	c0.4,0,0.7-0.1,1-0.3c0.5-0.4,12.7-9.4,12.7-20.3C107.2,52.4,101.1,46.2,93.5,46.2L93.5,46.2z M93.5,76.7
	c-2.8-2.3-10.3-9.1-10.3-16.7c0-5.7,4.6-10.3,10.3-10.3c5.7,0,10.3,4.6,10.3,10.3C103.8,67.5,96.3,74.4,93.5,76.7L93.5,76.7z
	 M93.5,76.7"/>
<path fill="#07DDCD" d="M98.7,58.3c-0.9,0-1.7,0.8-1.7,1.7c0,1.9-1.5,3.4-3.4,3.4c-1.9,0-3.4-1.5-3.4-3.4c0-1.9,1.5-3.4,3.4-3.4
	c0.9,0,1.7-0.8,1.7-1.7c0-0.9-0.8-1.7-1.7-1.7c-3.8,0-6.9,3.1-6.9,6.9c0,3.8,3.1,6.9,6.9,6.9c3.8,0,6.9-3.1,6.9-6.9
	C100.4,59,99.6,58.3,98.7,58.3L98.7,58.3z M98.7,58.3"/>
<path fill="#07DDCD" d="M25.1,73.7c0,11.1,12.2,19.9,12.8,20.3c0.3,0.2,0.6,0.3,1,0.3c0.4,0,0.7-0.1,1-0.3
	c0.5-0.4,12.7-9.4,12.7-20.3c0-7.6-6.2-13.7-13.7-13.7S25.1,66.2,25.1,73.7L25.1,73.7z M38.9,63.4c5.7,0,10.3,4.6,10.3,10.3
	c0,7.5-7.5,14.4-10.3,16.7c-2.8-2.3-10.3-9.1-10.3-16.7C28.6,68.1,33.2,63.4,38.9,63.4L38.9,63.4z M38.9,63.4"/>
<path fill="#07DDCD" d="M38.9,80.6c3.8,0,6.9-3.1,6.9-6.9c0-0.9-0.8-1.7-1.7-1.7c-0.9,0-1.7,0.8-1.7,1.7c0,1.9-1.5,3.4-3.4,3.4
	s-3.4-1.5-3.4-3.4c0-1.9,1.5-3.4,3.4-3.4c0.9,0,1.7-0.8,1.7-1.7c0-0.9-0.8-1.7-1.7-1.7c-3.8,0-6.9,3.1-6.9,6.9
	C32,77.5,35.1,80.6,38.9,80.6L38.9,80.6z M38.9,80.6"/>
</svg>
