<?xml version="1.0" encoding="utf-8"?>
<!-- Generator: Adobe Illustrator 18.0.0, SVG Export Plug-In . SVG Version: 6.00 Build 0)  -->
<!DOCTYPE svg PUBLIC "-//W3C//DTD SVG 1.1//EN" "http://www.w3.org/Graphics/SVG/1.1/DTD/svg11.dtd">
<svg version="1.1" id="Layer_1" xmlns="http://www.w3.org/2000/svg" xmlns:xlink="http://www.w3.org/1999/xlink" x="0px" y="0px"
	 viewBox="0 0 110 110" enable-background="new 0 0 110 110" xml:space="preserve">
<path fill="#07DDCD" d="M90.6,81.5l5.6,8.2l5.6-8.2l-5.6-9.1L90.6,81.5z M96.2,85.4l-1.6-2.3l1.6,0.4l1.7-0.4L96.2,85.4z M96.2,81.8
	l-2.3-0.6l2.3-4.2l2.5,4.2L96.2,81.8z"/>
<path fill="#07DDCD" d="M90.3,68.5c-6.9,3.2-9.9,11.5-6.7,18.4c3.2,6.9,11.5,9.9,18.4,6.7s9.9-11.5,6.7-18.4
	C105.5,68.3,97.2,65.3,90.3,68.5z M100.6,90.5c-5.2,2.4-11.4,0.2-13.8-5c-2.4-5.2-0.2-11.4,5-13.8c5.2-2.4,11.4-0.2,13.8,5
	C108,81.8,105.8,88,100.6,90.5z"/>
<path fill="#CCD2E2" d="M99.9,99.8H46.1v-37h44.1c1.9,0,3.4-1.5,3.4-3.4l0-11.3h0.1c0.7,0,1.4-0.4,1.6-1.1c0.4-1.2-0.5-2.3-1.6-2.3
	H83.4l3.7-2.2c0.7-0.4,1.1-1.3,0.8-2.1c-0.4-1-1.6-1.4-2.5-0.8l-8.7,5.2h-6.1l3.7-2.2c0.7-0.4,1.1-1.3,0.8-2.1
	c-0.4-1-1.6-1.4-2.5-0.8L64,44.7h-6.1l3.7-2.2c0.7-0.4,1.1-1.3,0.8-2.1c-0.4-1-1.6-1.4-2.5-0.8l-8.7,5.2h-6.1l3.7-2.2
	c0.7-0.4,1.1-1.3,0.8-2.1c-0.4-1-1.6-1.4-2.5-0.8l-8.7,5.2h-6.7c-0.9,0-1.6,0.6-1.8,1.4c-0.2,1.1,0.6,2,1.7,2h0.1v9.8v1.4h-6.2
	L23.9,7c0-0.9-0.8-1.6-1.7-1.6H11.3c-0.9,0-1.7,0.7-1.7,1.6L7.9,59.2H3.1c-1.7,0-3.1,1.4-3.1,3.1v44.3c0,1.7,1.4,3.2,3.2,3.2h96.7
	c2.3,0,4.5-1.8,4.5-5.1C104.4,102,102.3,99.8,99.9,99.8z M35.2,48.1h54.8v2.3V52v3.4v4H44.2c-0.9,0-1.6,0.7-1.6,1.6v45.6h-7.4v-44
	v-4.8V48.1z M12.9,8.8h7.7l0.2,3.9h-8L12.9,8.8z M12.6,16.1h8.4l0.2,3.9h-8.7L12.6,16.1z M12.2,23.4h9.1l1,35.9h-11L12.2,23.4z
	 M3.4,62.7h28.4v44H3.4V62.7z M101.3,104.9c0,0.9-0.6,1.7-1.4,1.7H46.1v-3.7h53.8c0.8,0,1.4,0.7,1.4,1.7V104.9z"/>
<path fill="#07DDCD" d="M59.1,68.5c-6.9,3.2-9.9,11.5-6.7,18.4c3.2,6.9,11.5,9.9,18.4,6.7s9.9-11.5,6.7-18.4
	C74.3,68.3,66.1,65.3,59.1,68.5z M69.4,90.5c-5.2,2.4-11.4,0.2-13.8-5c-2.4-5.2-0.2-11.4,5-13.8c5.2-2.4,11.4-0.2,13.8,5
	C76.8,81.8,74.6,88,69.4,90.5z"/>
<path fill="#07DDCD" d="M59.4,81.5l5.6,8.2l5.6-8.2L65,72.4L59.4,81.5z M65,85.4l-1.6-2.3l1.6,0.4l1.7-0.4L65,85.4z M65,81.8
	l-2.3-0.6l2.3-4.2l2.5,4.2L65,81.8z"/>
</svg>
