<svg xmlns="http://www.w3.org/2000/svg" viewBox="0 0 140 172"><path d="M117.2 27.6l-5.5-5.8H.1V0h139.8zm22.7 52.1V57.9H.1v79.7h139.8v-21.8h-118V79.7zm-124.3 76l-1.6 3.1H3.1v2.3H14l-1.6 3.1H3.1v2.3h11.7v3.1H0v-14.1h15.6zm3.7 0h3.5l4.1 8.9 4.1-8.9h3.5L26.9 172l-7.6-16.3zm34.4 0l-1.6 3.1H41.2v2.3h10.9l-1.6 3.1h-9.4v2.3h11.7v3.1H38.1v-14.1h15.6zm6.8 5.5v9.4l-3.1-1.6v-13.3h10.9c2.6 0 3.9 1.3 3.9 3.9v.8c0 2.1-.8 3.3-2.5 3.7l3.2 5.6h-3.6l-3.1-5.5H62l-1.5-3zm0 0h7.8c.5 0 .8-.3.8-.8v-.8c0-.5-.3-.8-.8-.8h-7.8v2.4zm19.8-5.5H92l-1.6 3.1H80.3c-.5 0-.8.3-.8.8v6.2c0 .5.3.8.8.8h10.2l1.6 3.1H80.3c-2.6 0-3.9-1.3-3.9-3.9v-6.2c0-2.6 1.3-3.9 3.9-3.9zm18.6 14.1h-3.1v-14.1h3.1v14.1zm19.6-14.1l-1.6 3.1h-5.1v10.9h-3.1v-10.9h-5.9v-3.1h15.7zm14.1 7.7v7.9l-3.1-1.6v-6.4l-7.4-7.7h4.3l4.6 4.8 4.6-4.8h4.3l-7.3 7.8z" fill="#FFF"/></svg>