<?xml version="1.0" encoding="utf-8"?>
<!-- Generator: Adobe Illustrator 18.0.0, SVG Export Plug-In . SVG Version: 6.00 Build 0)  -->
<!DOCTYPE svg PUBLIC "-//W3C//DTD SVG 1.1//EN" "http://www.w3.org/Graphics/SVG/1.1/DTD/svg11.dtd">
<svg version="1.1" id="Layer_1" xmlns="http://www.w3.org/2000/svg" xmlns:xlink="http://www.w3.org/1999/xlink" x="0px" y="0px"
	 viewBox="0 0 70 70" enable-background="new 0 0 70 70" xml:space="preserve">
<g>
	<path fill="#fff" d="M52.2,21.1c-0.2,0-0.3-0.1-0.5-0.1H18.3c-0.2,0-0.3,0.1-0.5,0.1L35,35.8L52.2,21.1z"/>
	<path fill="#fff" d="M35.9,38.7c-0.3,0.2-0.6,0.3-0.9,0.3s-0.6-0.1-0.9-0.3l-4.5-3.9l-12,13.8c0.3,0.1,0.5,0.2,0.8,0.2h33.3
		c0.3,0,0.5-0.1,0.8-0.2l-12-13.8L35.9,38.7z"/>
	<path fill="#fff" d="M15.7,23c-0.1,0.3-0.2,0.5-0.2,0.8V46c0,0.2,0.1,0.4,0.1,0.5L27.5,33L15.7,23z"/>
	<path fill="#fff" d="M35,0C15.7,0,0.1,15.6,0.1,34.9c0,19.3,15.6,34.9,34.9,34.9c19.3,0,34.9-15.6,34.9-34.9
		C69.9,15.6,54.3,0,35,0z M57.2,46c0,3.1-2.5,5.6-5.6,5.6H18.3c-3.1,0-5.6-2.5-5.6-5.6V23.8c0-3.1,2.5-5.6,5.6-5.6h33.3
		c3.1,0,5.6,2.5,5.6,5.6V46z"/>
	<path fill="#fff" d="M42.5,33l11.8,13.5c0-0.2,0.1-0.4,0.1-0.5V23.8c0-0.3-0.1-0.5-0.2-0.8L42.5,33z"/>
</g>
</svg>
