<svg xmlns="http://www.w3.org/2000/svg" viewBox="0 0 45 30"><g fill-rule="evenodd" clip-rule="evenodd"><path fill="#00337A" d="M0 0h44.9v29.9H0z"/><path fill="#FFF" d="M20.2 0h4.7v29.9h-4.7z"/><path fill="#FFF" d="M0 11.9h44.9v4.9H0z"/><path fill="#FFF" d="M3.8 0H0v3.2l42 26.7h2.9v-3.4z"/><path fill="#FFF" d="M40.9 0h4v3.2L2.7 29.9H0v-3.7z"/><path fill="#E50004" d="M20.9 0h3.3v29.9h-3.3z"/><path fill="#E50004" d="M0 12.6h44.9v3.6H0zM0 0v1.4l16.4 10.5h3.9L1.8 0zm44.9 0v1.4L28 11.9h-3.1L42.9 0zM0 29.9v-2.4l16.5-10.3h3.8L.7 29.9zm44.9 0v-1.7l-17.2-11h-2.9l19 12.7z"/></g></svg>