<?xml version="1.0" encoding="utf-8"?>
<!-- Generator: Adobe Illustrator 18.0.0, SVG Export Plug-In . SVG Version: 6.00 Build 0)  -->
<!DOCTYPE svg PUBLIC "-//W3C//DTD SVG 1.1//EN" "http://www.w3.org/Graphics/SVG/1.1/DTD/svg11.dtd">
<svg version="1.1" id="Layer_1" xmlns="http://www.w3.org/2000/svg" xmlns:xlink="http://www.w3.org/1999/xlink" x="0px" y="0px"
	 viewBox="0 0 110 110" enable-background="new 0 0 110 110" xml:space="preserve">
<g>
	<path fill="#CCD2E2" d="M102.1,40.1H74.3c-2.4,0-4.4,2-4.4,4.4v5.7c0,1,0.4,2,0.9,2.7c-0.6,0.7-0.9,1.7-0.9,2.7v5.7
		c0,0.4,0.1,0.8,0.2,1.2c-0.4-0.1-0.8-0.2-1.2-0.2H59c-0.9,0-1.7,0.8-1.7,1.7c0,0.9,0.8,1.7,1.7,1.7h9.9c0.6,0,1,0.5,1,1v5.7
		c0,0.6-0.5,1-1,1H41.1c-0.6,0-1-0.5-1-1v-5.7c0-0.6,0.5-1,1-1H51c0.9,0,1.7-0.8,1.7-1.7c0-0.9-0.8-1.7-1.7-1.7h-9.9
		c-2.4,0-4.4,2-4.4,4.4v5.7c0,1,0.4,2,0.9,2.7c-0.6,0.7-0.9,1.7-0.9,2.7v5.7c0,0.4,0.1,0.8,0.2,1.2c-0.4-0.1-0.8-0.2-1.2-0.2H7.9
		c-2.4,0-4.4,2-4.4,4.4v5.7c0,1,0.4,2,0.9,2.7c-0.6,0.7-0.9,1.7-0.9,2.7v5.7c0,2.4,2,4.4,4.4,4.4h27.8c1,0,2-0.4,2.7-0.9
		c0.7,0.6,1.7,0.9,2.7,0.9h27.8c1,0,2-0.4,2.7-0.9c0.7,0.6,1.7,0.9,2.7,0.9h27.8c2.4,0,4.4-2,4.4-4.4v-5.7c0-1-0.4-2-0.9-2.7
		c0.6-0.7,0.9-1.7,0.9-2.7v-5.7c0-1-0.4-2-0.9-2.7c0.6-0.7,0.9-1.7,0.9-2.7v-5.7c0-1-0.4-2-0.9-2.7c0.6-0.7,0.9-1.7,0.9-2.7v-5.7
		c0-1-0.4-2-0.9-2.7c0.6-0.7,0.9-1.7,0.9-2.7v-5.7c0-1-0.4-2-0.9-2.7c0.6-0.7,0.9-1.7,0.9-2.7v-5.7
		C106.5,42.1,104.5,40.1,102.1,40.1z M73.3,44.5c0-0.6,0.5-1,1-1h27.8c0.6,0,1,0.5,1,1v5.7c0,0.6-0.5,1-1,1H74.3c-0.6,0-1-0.5-1-1
		V44.5z M103.1,55.6v5.7c0,0.6-0.5,1-1,1H74.3c-0.6,0-1-0.5-1-1v-5.7c0-0.6,0.5-1,1-1h27.8C102.6,54.6,103.1,55,103.1,55.6z
		 M103.1,66.7v5.7c0,0.6-0.5,1-1,1H74.3c-0.6,0-1-0.5-1-1v-5.7c0-0.6,0.5-1,1-1h27.8C102.6,65.7,103.1,66.1,103.1,66.7z M103.1,77.8
		v5.7c0,0.6-0.5,1-1,1H74.3c-0.6,0-1-0.5-1-1v-5.7c0-0.6,0.5-1,1-1h27.8C102.6,76.7,103.1,77.2,103.1,77.8z M103.1,88.8v5.7
		c0,0.6-0.5,1-1,1H74.3c-0.6,0-1-0.5-1-1v-5.7c0-0.6,0.5-1,1-1h27.8C102.6,87.8,103.1,88.3,103.1,88.8z M40.1,94.5v-5.7
		c0-0.6,0.5-1,1-1h27.8c0.6,0,1,0.5,1,1v5.7c0,0.6-0.5,1-1,1H41.1C40.6,95.5,40.1,95.1,40.1,94.5z M68.9,76.7c0.6,0,1,0.5,1,1v5.7
		c0,0.6-0.5,1-1,1H41.1c-0.6,0-1-0.5-1-1v-5.7c0-0.6,0.5-1,1-1H68.9z M6.9,88.8c0-0.6,0.5-1,1-1h27.8c0.6,0,1,0.5,1,1v5.7
		c0,0.6-0.5,1-1,1H7.9c-0.6,0-1-0.5-1-1V88.8z M35.7,106.6H7.9c-0.6,0-1-0.5-1-1v-5.7c0-0.6,0.5-1,1-1h27.8c0.6,0,1,0.5,1,1v5.7
		C36.7,106.1,36.2,106.6,35.7,106.6z M68.9,106.6H41.1c-0.6,0-1-0.5-1-1v-5.7c0-0.6,0.5-1,1-1h27.8c0.6,0,1,0.5,1,1v5.7
		C69.9,106.1,69.4,106.6,68.9,106.6z M103.1,105.6c0,0.6-0.5,1-1,1H74.3c-0.6,0-1-0.5-1-1v-5.7c0-0.6,0.5-1,1-1h27.8
		c0.6,0,1,0.5,1,1L103.1,105.6L103.1,105.6z"/>
	<path fill="#07DDCD" d="M7.8,79.5c0.4,0,0.9-0.2,1.2-0.5l51.7-51.7v3.2c0,0.9,0.8,1.7,1.7,1.7c0.9,0,1.7-0.8,1.7-1.7v-7.2
		c0-0.9-0.8-1.7-1.7-1.7h-7.2c-0.9,0-1.7,0.8-1.7,1.7s0.8,1.7,1.7,1.7h3.1L6.6,76.6C6,77.3,6,78.4,6.6,79C7,79.4,7.4,79.5,7.8,79.5z
		"/>
	<path fill="#CCD2E2" d="M101.2,13c0-7.2-5.9-13.1-13.1-13.1C80.8-0.1,75,5.8,75,13s5.9,13.1,13.1,13.1
		C95.3,26.1,101.2,20.2,101.2,13z M88.1,22.7c-5.4,0-9.7-4.4-9.7-9.7s4.4-9.7,9.7-9.7c5.4,0,9.7,4.4,9.7,9.7S93.4,22.7,88.1,22.7z"
		/>
	<path fill="#CCD2E2" d="M88.9,11.8V8.4C89.6,8.5,90,8.6,90.8,9c0.4,0.2,0.9,0.1,1.2-0.4c0.2-0.4,0.4-1.1-0.1-1.5
		c-0.7-0.6-2-0.8-2.9-0.8V5.8c0-0.3-0.4-0.5-0.6-0.5c-0.3,0-0.6,0.2-0.6,0.5v0.5c-2.2,0.3-3.7,1.5-3.7,3.7c0,2.3,1.7,3.1,3.7,3.8
		v3.8c-1-0.1-1.5-0.5-2.4-1.2c-0.5-0.4-0.9-0.2-1.3,0.3c-0.4,0.6-0.4,1.2,0,1.7c0.7,1,2.3,1.5,3.7,1.5v0.5c0,0.3,0.3,0.5,0.6,0.5
		c0.3,0,0.6-0.2,0.6-0.5v-0.6c1.9-0.3,3.6-1.5,3.6-4C92.5,13.5,91.1,12.6,88.9,11.8z M87.8,11.4c-1.1-0.5-1.5-0.8-1.5-1.5
		c0-0.8,0.7-1.2,1.5-1.3V11.4z M88.8,17.7v-3.3c1.2,0.5,1.4,1.1,1.4,1.8C90.2,17,89.6,17.5,88.8,17.7z"/>
</g>
</svg>
