<?xml version="1.0" encoding="utf-8"?>
<!-- Generator: Adobe Illustrator 18.0.0, SVG Export Plug-In . SVG Version: 6.00 Build 0)  -->
<!DOCTYPE svg PUBLIC "-//W3C//DTD SVG 1.1//EN" "http://www.w3.org/Graphics/SVG/1.1/DTD/svg11.dtd">
<svg version="1.1" id="Layer_1" xmlns="http://www.w3.org/2000/svg" xmlns:xlink="http://www.w3.org/1999/xlink" x="0px" y="0px"
	 viewBox="0 0 110 110" enable-background="new 0 0 110 110" xml:space="preserve">
<path fill="#07DDCD" d="M59.6,22.4h-6.3c-1.4,0-2.5,1.1-2.5,2.5v5.3c-1,0.3-2,0.7-3,1.2L44,27.7c-1-1-2.6-1-3.5,0l-4.4,4.4
	c-0.5,0.5-0.7,1.1-0.7,1.8c0,0.7,0.3,1.3,0.7,1.8l3.8,3.8c-0.5,1-0.9,2-1.2,3h-5.3c-1.4,0-2.5,1.1-2.5,2.5v6.3
	c0,1.4,1.1,2.5,2.5,2.5h5.3c0.3,1,0.7,2,1.2,3l-3.8,3.8c-1,1-1,2.6,0,3.5l4.4,4.4c1,1,2.6,1,3.5,0l3.8-3.8c1,0.5,2,0.9,3,1.2v5.3
	c0,1.4,1.1,2.5,2.5,2.5h6.3c1.4,0,2.5-1.1,2.5-2.5V66c1-0.3,2-0.7,3-1.2l3.8,3.8c1,1,2.6,1,3.5,0l4.4-4.4c0.5-0.5,0.7-1.1,0.7-1.8
	s-0.3-1.3-0.7-1.8L73,56.7c0.5-1,0.9-2,1.2-3h5.3c1.4,0,2.5-1.1,2.5-2.5V45c0-1.4-1.1-2.5-2.5-2.5h-5.3c-0.3-1-0.7-2-1.2-3l3.8-3.8
	c0.5-0.5,0.7-1.1,0.7-1.8c0-0.7-0.3-1.3-0.7-1.8l-4.4-4.4c-1-1-2.6-1-3.5,0l-3.8,3.8c-1-0.5-2-0.9-3-1.2v-5.3
	C62.1,23.6,60.9,22.4,59.6,22.4z M64.4,35.2c0.7,0.4,1.6,0.3,2.2-0.3l4-4l3,3l-4,4c-0.6,0.6-0.7,1.5-0.3,2.2
	c0.9,1.4,1.5,2.9,1.9,4.5c0.2,0.8,0.9,1.4,1.7,1.4h5.6v4.2h-5.6c-0.8,0-1.5,0.6-1.7,1.4c-0.4,1.6-1,3.1-1.9,4.5
	c-0.4,0.7-0.3,1.6,0.3,2.2l4,4l-3,3l-4-4c-0.6-0.6-1.5-0.7-2.2-0.3c-1.4,0.9-2.9,1.5-4.5,1.9c-0.8,0.2-1.4,0.9-1.4,1.7v5.6h-4.2
	v-5.6c0-0.8-0.6-1.5-1.4-1.7c-1.6-0.4-3.1-1-4.5-1.9c-0.7-0.4-1.6-0.3-2.2,0.3l-4,4l-3-3l4-4c0.6-0.6,0.7-1.5,0.3-2.2
	c-0.9-1.4-1.5-2.9-1.9-4.5c-0.2-0.8-0.9-1.4-1.7-1.4h-5.6V46h5.6c0.8,0,1.5-0.6,1.7-1.4c0.4-1.6,1-3.1,1.9-4.5
	c0.4-0.7,0.3-1.6-0.3-2.2l-4-4l3-3l4,4c0.6,0.6,1.5,0.7,2.2,0.3c1.4-0.9,2.9-1.5,4.5-1.9c0.8-0.2,1.4-0.9,1.4-1.7V26h4.2v5.6
	c0,0.8,0.6,1.5,1.4,1.7C61.5,33.7,63,34.3,64.4,35.2z"/>
<path fill="#CCD2E2" d="M47,48.1c0,5.2,4.2,9.4,9.4,9.4c5.2,0,9.4-4.2,9.4-9.4s-4.2-9.4-9.4-9.4S47,42.9,47,48.1z M62.3,48.1
	c0,3.3-2.7,5.9-5.9,5.9c-3.3,0-5.9-2.7-5.9-5.9c0-3.3,2.7-5.9,5.9-5.9C59.7,42.2,62.3,44.9,62.3,48.1z"/>
<path fill="#07DDCD" d="M15.9,46.4h-5.8c-1,0-1.8,0.8-1.8,1.8s0.8,1.8,1.8,1.8h5.8c1,0,1.8-0.8,1.8-1.8S16.9,46.4,15.9,46.4z"/>
<path fill="#07DDCD" d="M102.8,46.4h-5.8c-1,0-1.8,0.8-1.8,1.8s0.8,1.8,1.8,1.8h5.8c1,0,1.8-0.8,1.8-1.8S103.7,46.4,102.8,46.4z"/>
<path fill="#07DDCD" d="M26.6,75.5l-4.1,4.1c-0.7,0.7-0.7,1.8,0,2.5c0.7,0.7,1.8,0.7,2.5,0L29,78c0.7-0.7,0.7-1.8,0-2.5
	C28.4,74.8,27.2,74.8,26.6,75.5z"/>
<path fill="#07DDCD" d="M86.3,20.7l4.1-4.1c0.7-0.7,0.7-1.8,0-2.5c-0.7-0.7-1.8-0.7-2.5,0l-4.1,4.1c-0.7,0.7-0.7,1.8,0,2.5
	C84.5,21.4,85.6,21.4,86.3,20.7z"/>
<path fill="#07DDCD" d="M56.4,9.4c1,0,1.8-0.8,1.8-1.8V1.8c0-1-0.8-1.8-1.8-1.8s-1.8,0.8-1.8,1.8v5.8C54.7,8.6,55.5,9.4,56.4,9.4z"
	/>
<path fill="#07DDCD" d="M86.3,75.5c-0.7-0.7-1.8-0.7-2.5,0c-0.7,0.7-0.7,1.8,0,2.5l4.1,4.1c0.7,0.7,1.8,0.7,2.5,0
	c0.7-0.7,0.7-1.8,0-2.5L86.3,75.5z"/>
<path fill="#07DDCD" d="M26.6,20.7c0.7,0.7,1.8,0.7,2.5,0c0.7-0.7,0.7-1.8,0-2.5l-4.1-4.1c-0.7-0.7-1.8-0.7-2.5,0
	c-0.7,0.7-0.7,1.8,0,2.5L26.6,20.7z"/>
<path fill="#CCD2E2" d="M60.8,12.8c-1-0.1-1.8,0.6-2,1.5c-0.1,1,0.6,1.8,1.5,2c14.6,1.8,26,13.2,27.7,27.9c0.1,0.9,0.9,1.6,1.7,1.6
	c0.1,0,0.1,0,0.2,0c1-0.1,1.7-1,1.5-2C89.7,27.6,76.8,14.8,60.8,12.8z"/>
<path fill="#CCD2E2" d="M38.3,76.5c2.3,1.4,3.7,3.9,3.7,6.7v7.5c-1.7,0.6-3,2.3-3,4.2v2.5c0,1,0.4,2,1,2.8c-0.6,0.8-1,1.7-1,2.8v2.5
	c0,2.5,2,4.5,4.5,4.5h5.4v0.3h3.4v-0.3h8.4v0.3H64v-0.3h5.4c2.5,0,4.5-2,4.5-4.5v-2.5c0-1-0.4-2-1-2.8c0.6-0.8,1-1.7,1-2.8v-2.5
	c0-2-1.3-3.6-3-4.2v-7.3c0-2.8,1.4-5.4,3.9-6.9c8.8-5.5,14.6-14.6,15.9-24.9c0.1-0.9-0.5-1.8-1.5-1.9c-0.9-0.1-1.8,0.5-1.9,1.5
	c-1.2,9.3-6.4,17.4-14.3,22.4c-3.4,2.1-5.5,5.8-5.5,9.8v7.1H45.4v-7.2c0-3.9-2-7.6-5.3-9.6C30.8,67.9,25.3,58,25.3,47.1
	c0-15.7,11.7-28.9,27.3-30.9c0.9-0.1,1.6-1,1.5-1.9c-0.1-0.9-1-1.6-1.9-1.5C35,15,21.9,29.8,21.9,47.1c0,6,1.6,11.9,4.5,17.1
	C29.3,69.2,33.4,73.5,38.3,76.5z M42.4,94.9c0-0.6,0.5-1,1-1h26c0.6,0,1,0.5,1,1v2.5c0,0.6-0.5,1-1,1h-26c-0.6,0-1-0.5-1-1V94.9z
	 M42.4,102.8c0-0.6,0.5-1,1-1h26c0.6,0,1,0.5,1,1v2.5c0,0.6-0.5,1-1,1c-3,0-23.2,0-26,0c-0.6,0-1-0.5-1-1V102.8z"/>
</svg>
