<?xml version="1.0" encoding="utf-8"?>
<!-- Generator: Adobe Illustrator 18.0.0, SVG Export Plug-In . SVG Version: 6.00 Build 0)  -->
<!DOCTYPE svg PUBLIC "-//W3C//DTD SVG 1.1//EN" "http://www.w3.org/Graphics/SVG/1.1/DTD/svg11.dtd">
<svg version="1.1" id="Layer_1" xmlns="http://www.w3.org/2000/svg" xmlns:xlink="http://www.w3.org/1999/xlink" x="0px" y="0px"
	 viewBox="0 0 70 70" enable-background="new 0 0 70 70" xml:space="preserve">
<path fill="#fff" d="M34.9,0C15.7,0,0,15.7,0,34.9c0,19.5,15.7,34.9,34.9,34.9s34.9-15.7,34.9-34.9C70.1,15.7,54.4,0,34.9,0z
	 M25.1,55.8h-8.7V27.9h8.7V55.8z M20.6,24.2c-2.8,0-4.9-2.3-4.9-4.9c0-2.8,2.1-5.2,4.9-5.2s5.2,2.3,5.2,5.2S23.4,24.2,20.6,24.2z
	 M57.4,55.8h-8.7V42.2c0-3.3,0-7.3-4.5-7.3s-5.2,3.5-5.2,7v13.8h-8.7V27.9h8.2v3.8h0.2c1.2-2.1,4-4.5,8.2-4.5
	c8.7,0,10.3,5.9,10.3,13.1V55.8z"/>
</svg>
