<?xml version="1.0" encoding="utf-8"?>
<!-- Generator: Adobe Illustrator 18.0.0, SVG Export Plug-In . SVG Version: 6.00 Build 0)  -->
<!DOCTYPE svg PUBLIC "-//W3C//DTD SVG 1.1//EN" "http://www.w3.org/Graphics/SVG/1.1/DTD/svg11.dtd">
<svg version="1.1" id="Layer_1" xmlns="http://www.w3.org/2000/svg" xmlns:xlink="http://www.w3.org/1999/xlink" x="0px" y="0px"
	 viewBox="0 0 70 70" enable-background="new 0 0 70 70" xml:space="preserve">
<path fill="#fff" d="M35,0C15.7,0,0.1,15.6,0.1,34.9S15.7,69.9,35,69.9s34.9-15.6,34.9-34.9S54.3,0,35,0z M58.5,54.6
	c0,0.8-0.5,1.1-1.3,0.8l-13.5-6.7l14.7-24.1V54.6z M58.6,22.6L42.9,48.2L42.8,48v0.1l-16-8v14.5c0,0.8-0.4,1.1-1.1,0.8l-13.5-6.7
	c-0.5-0.3-0.6-0.9-0.6-1.5V15.2c0-0.5,0.1-0.8,0.6-0.5l14.6,7.4l0,0c0.1,0,0.1,0.1,0.3,0.3l5.5,8.9l10.2-16.5
	c0.1-0.3,0.5-0.4,0.8-0.3l15.1,7.6C58.6,22.2,58.8,22.4,58.6,22.6z"/>
</svg>
