<?xml version="1.0" encoding="utf-8"?>
<!-- Generator: Adobe Illustrator 18.0.0, SVG Export Plug-In . SVG Version: 6.00 Build 0)  -->
<!DOCTYPE svg PUBLIC "-//W3C//DTD SVG 1.1//EN" "http://www.w3.org/Graphics/SVG/1.1/DTD/svg11.dtd">
<svg version="1.1" id="Layer_1" xmlns="http://www.w3.org/2000/svg" xmlns:xlink="http://www.w3.org/1999/xlink" x="0px" y="0px"
	 viewBox="0 0 70 70" enable-background="new 0 0 70 70" xml:space="preserve">
<g>
	<path fill="#fff" d="M42.3,46.7c-2.1,1.5-4.7,2.3-7.3,2.1c-2.6,0.1-5.2-0.7-7.3-2.2c-0.4-0.3-0.8-0.3-1.2,0
		c-0.4,0.3-0.5,0.9-0.1,1.3c2.5,1.9,5.5,2.8,8.6,2.7c3.1,0.1,6.1-0.8,8.6-2.7v0.1c0.4-0.4,0.4-1,0-1.4
		C43.3,46.4,42.7,46.3,42.3,46.7z"/>
	<path fill="#fff" d="M30.4,38.4c0-1.9-1.6-3.5-3.5-3.5c-1.9,0-3.5,1.6-3.5,3.5c0,1.9,1.6,3.5,3.5,3.5
		C28.8,41.9,30.4,40.3,30.4,38.4z"/>
	<path fill="#fff" d="M43,35c-1.9,0-3.5,1.6-3.5,3.5S41.1,42,43,42l0,0.1c0.1,0,0.1,0,0.2,0c1.9-0.1,3.4-1.7,3.3-3.6
		C46.5,36.6,44.9,35,43,35z"/>
	<path fill="#fff" d="M35,0C15.7,0,0.1,15.6,0.1,34.9c0,19.3,15.6,34.9,34.9,34.9c19.3,0,34.9-15.6,34.9-34.9
		C69.9,15.6,54.3,0,35,0z M55.5,39.5c0,0.5,0,1,0,1.5c0,7.8-9.1,14.2-20.3,14.2c-11.2,0-20.3-6.4-20.3-14.2c0-0.5,0-1,0-1.5
		c-0.5-0.2-1-0.5-1.4-0.9c-2.1-1.9-2.2-5.2-0.2-7.2c1.9-2.1,5.2-2.2,7.2-0.2c4-2.7,8.8-4.2,13.6-4.3l2.6-12.1c0,0,0,0,0,0
		c0.1-0.6,0.7-1,1.3-0.8l8.6,1.7c0.5-1,1.5-1.6,2.6-1.7c1.9-0.2,3.6,1.2,3.8,3.1c0.2,1.9-1.2,3.6-3.1,3.8c-1.9,0.2-3.6-1.2-3.8-3.1
		l-7.5-1.6l-2.3,10.9c4.8,0.1,9.5,1.6,13.4,4.3c0.9-0.9,2.1-1.4,3.3-1.4c2.8-0.1,5.2,2.1,5.3,4.9C58.3,36.9,57.2,38.7,55.5,39.5z"/>
</g>
</svg>
