<?xml version="1.0" encoding="utf-8"?>
<!-- Generator: Adobe Illustrator 18.0.0, SVG Export Plug-In . SVG Version: 6.00 Build 0)  -->
<!DOCTYPE svg PUBLIC "-//W3C//DTD SVG 1.1//EN" "http://www.w3.org/Graphics/SVG/1.1/DTD/svg11.dtd">
<svg version="1.1" id="Layer_1" xmlns="http://www.w3.org/2000/svg" xmlns:xlink="http://www.w3.org/1999/xlink" x="0px" y="0px"
	 viewBox="0 0 70 70" enable-background="new 0 0 70 70" xml:space="preserve">
<path fill="#07DDCD" d="M35,0C15.7,0,0.1,15.6,0.1,34.9c0,19.3,15.6,34.9,34.9,34.9c19.3,0,34.9-15.6,34.9-34.9
	C69.9,15.6,54.3,0,35,0z M47.9,53.9c0,0-1.1,2.7-4,1.4L33.1,47l0,0l-6.9,6.3c0,0-0.5,0.4-1.1,0.2c0,0-0.5,0-1.1-2.1
	c-0.6-2-3.9-12.6-3.9-12.6L9.3,35.2c0,0-1.6-0.6-1.8-1.9c-0.2-1.3,1.9-2,1.9-2L52,14.7c0,0,3.5-1.5,3.5,1L47.9,53.9z"/>
</svg>
