<?xml version="1.0" encoding="utf-8"?>
<!-- Generator: Adobe Illustrator 18.0.0, SVG Export Plug-In . SVG Version: 6.00 Build 0)  -->
<!DOCTYPE svg PUBLIC "-//W3C//DTD SVG 1.1//EN" "http://www.w3.org/Graphics/SVG/1.1/DTD/svg11.dtd">
<svg version="1.1" id="Layer_1" xmlns="http://www.w3.org/2000/svg" xmlns:xlink="http://www.w3.org/1999/xlink" x="0px" y="0px"
	 viewBox="0 0 70 70" enable-background="new 0 0 70 70" xml:space="preserve">
<path fill="#fff" d="M34.9,0C15.6,0,0,15.6,0,34.9c0,19.3,15.6,34.9,34.9,34.9s34.9-15.6,34.9-34.9C69.9,15.6,54.3,0,34.9,0z
	 M56.1,24.5c0,0,1.2,29.3-30.7,31.4c0,0-6.5,0.2-14-3c-0.2,0-0.5-0.2-0.5-0.2c-0.9-0.5-1.6-0.7-2.6-1.2c0,0,10.7,0.2,16.1-4.4l0,0
	c0,0-7.2-1.4-9.5-6.3c-0.2-0.5-0.2-0.5-0.5-0.9c0,0,4-0.2,4.9-0.2l0,0c-0.5,0-8.2-2.6-8.6-10.7l0,0c0.2,0,2.6,1.6,4.4,1.4
	c0.2,0,0.2,0,0.5,0c0,0-7.9-6.1-3-14.2c0,0,8.6,10.7,22.1,10.9c0,0-0.2-3.3,0.7-6.3c0.5-1.4,1.2-2.8,2.6-3.7c4-3,10.2-5.1,15.6,0.2
	c0,0,6.1-1.4,7-2.6c-0.2,0.2-2.1,4.7-4.4,5.8c0,0,4.9-0.7,6.1-1.4C61.5,19.1,57.8,23.5,56.1,24.5z"/>
</svg>
