<?xml version="1.0" encoding="utf-8"?>
<!-- Generator: Adobe Illustrator 18.0.0, SVG Export Plug-In . SVG Version: 6.00 Build 0)  -->
<!DOCTYPE svg PUBLIC "-//W3C//DTD SVG 1.1//EN" "http://www.w3.org/Graphics/SVG/1.1/DTD/svg11.dtd">
<svg version="1.1" id="Layer_1" xmlns="http://www.w3.org/2000/svg" xmlns:xlink="http://www.w3.org/1999/xlink" x="0px" y="0px"
	 viewBox="0 0 50 50" enable-background="new 0 0 50 50" xml:space="preserve">
<g>
	<path fill="#5B2D88" d="M45.1,8.6c-6.9-1.9-13.8-4.8-20-8.5C24.7,0,24.3,0,24,0.1C17.6,3.9,11,6.7,4,8.6c-0.5,0.1-0.8,0.5-0.8,1
		v10.7c0,11.1,5.1,18.4,9.4,22.6c4.6,4.5,10,7,11.9,7c1.9,0,7.3-2.5,11.9-7c4.3-4.2,9.4-11.5,9.4-22.6V9.6
		C45.8,9.2,45.5,8.8,45.1,8.6z M43.7,20.4c0,10.3-4.8,17.2-8.8,21.1c-4.5,4.4-9.4,6.4-10.5,6.4c-1.1,0-5.9-2-10.5-6.4
		c-4-3.9-8.8-10.7-8.8-21.1v-9.9c6.8-1.9,13.1-4.6,19.2-8.2c6,3.5,12.6,6.3,19.2,8.2V20.4z"/>
	<path fill="#00DDCE" d="M17.4,22.9c-0.6-0.6-1.5-1-2.4-1c-0.9,0-1.8,0.4-2.4,1c-1.3,1.3-1.3,3.5,0,4.8l6.2,6.2c0.6,0.6,1.5,1,2.4,1
		c0.9,0,1.8-0.4,2.4-1l13-13c1.3-1.3,1.3-3.5,0-4.8c-0.6-0.6-1.5-1-2.4-1c-0.9,0-1.8,0.4-2.4,1L21.1,26.6L17.4,22.9z M33.2,17.6
		c0.2-0.2,0.6-0.4,0.9-0.4c0.4,0,0.7,0.1,0.9,0.4c0.5,0.5,0.5,1.3,0,1.9l-13,13c-0.2,0.2-0.6,0.4-0.9,0.4c-0.4,0-0.7-0.1-0.9-0.4
		L14,26.2c-0.5-0.5-0.5-1.3,0-1.9c0.2-0.2,0.6-0.4,0.9-0.4c0.4,0,0.7,0.1,0.9,0.4l4.5,4.5c0.2,0.2,0.5,0.3,0.7,0.3
		c0.3,0,0.5-0.1,0.7-0.3L33.2,17.6z"/>
</g>
</svg>
