<?xml version="1.0" encoding="utf-8"?>
<!-- Generator: Adobe Illustrator 18.0.0, SVG Export Plug-In . SVG Version: 6.00 Build 0)  -->
<!DOCTYPE svg PUBLIC "-//W3C//DTD SVG 1.1//EN" "http://www.w3.org/Graphics/SVG/1.1/DTD/svg11.dtd">
<svg version="1.1" id="Layer_1" xmlns="http://www.w3.org/2000/svg" xmlns:xlink="http://www.w3.org/1999/xlink" x="0px" y="0px"
	 viewBox="0 0 50 50" enable-background="new 0 0 50 50" xml:space="preserve">
<path fill="#005589" d="M17,6.2l-1.6-4.2c-2.3,1-4.5,2.3-6.4,3.9L12,9.3C13.5,8,15.2,7,17,6.2z"/>
<path fill="#5FBA46" d="M10.9,10.3L7.7,6.9C5.9,8.7,4.3,10.7,3.1,13l4.2,2.1C8.2,13.3,9.4,11.7,10.9,10.3z"/>
<path fill="#007DBA" d="M6.6,16.5l-4.2-2.1c-1.1,2.3-1.8,4.8-2.2,7.4L5,22.2C5.3,20.2,5.8,18.3,6.6,16.5z"/>
<path fill="#48773C" d="M4.9,24.6c0-0.3,0-0.6,0-0.8l-4.9-0.4C0,23.9,0,24.4,0,25c0,2.1,0.3,4.1,0.7,6l4.8-1.4
	C5.1,28.1,4.9,26.4,4.9,24.6z"/>
<path fill="#CC8B2A" d="M6,31.2l-4.8,1.4c0.8,2.5,2,4.8,3.5,6.9l4.1-3.1C7.6,34.8,6.6,33.1,6,31.2z"/>
<path fill="#F89C25" d="M9.7,37.6l-4.1,3.1c1.6,2,3.5,3.7,5.7,5.1l2.7-4.4C12.4,40.4,10.9,39.1,9.7,37.6z"/>
<path fill="#DF1A82" d="M15.3,42.3l-2.7,4.4c2.2,1.3,4.6,2.2,7.2,2.7l1-5.2C18.8,43.9,17,43.2,15.3,42.3z"/>
<path fill="#F26E24" d="M25,44.7c-0.9,0-1.8-0.1-2.7-0.2l-1,5.2c1.2,0.2,2.4,0.3,3.7,0.3c1.4,0,2.7-0.1,4.1-0.3l-1-5.2
	C27.1,44.7,26,44.7,25,44.7z"/>
<path fill="#8E1837" d="M29.6,44.2l1,5.2c2.5-0.6,4.9-1.5,7-2.8l-2.7-4.4C33.3,43.1,31.5,43.8,29.6,44.2z"/>
<path fill="#FCB614" d="M36.3,41.3l2.7,4.4c2.1-1.4,4-3.2,5.6-5.2l-4.1-3.1C39.3,38.9,37.9,40.2,36.3,41.3z"/>
<path fill="#00ACD7" d="M44,31.1c-0.6,1.8-1.5,3.5-2.6,5l4.1,3.1c1.4-2,2.5-4.3,3.3-6.7L44,31.1z"/>
<path fill="#EE402A" d="M50,23.5l-4.9,0.5c0,0.2,0,0.5,0,0.7c0,1.7-0.2,3.4-0.6,5l4.8,1.4c0.5-1.9,0.7-3.9,0.7-6
	C50,24.5,50,24,50,23.5z"/>
<path fill="#C22033" d="M45,22.3l4.8-0.5c-0.3-2.6-1-5-2.1-7.3l-4.2,2.1C44.2,18.5,44.8,20.4,45,22.3z"/>
<path fill="#2C9947" d="M42.8,15.3l4.2-2.1c-1.2-2.2-2.8-4.3-4.6-6.1l-3.1,3.4C40.7,11.9,41.9,13.5,42.8,15.3z"/>
<path fill="#D19E2A" d="M38.2,9.5l3.1-3.4C39.4,4.4,37.2,3,34.8,2l-1.6,4.3C35,7.1,36.7,8.1,38.2,9.5z"/>
<path fill="#EA1C2D" d="M31.7,5.7l1.6-4.2C31,0.6,28.5,0.1,25.9,0v4.5C27.9,4.6,29.9,5,31.7,5.7z"/>
<path fill="#1B3668" d="M24.3,4.5V0c-2.6,0.1-5.1,0.5-7.5,1.4l1.6,4.2C20.3,5,22.3,4.6,24.3,4.5z"/>
</svg>
