<?xml version="1.0" encoding="utf-8"?>
<!-- Generator: Adobe Illustrator 18.0.0, SVG Export Plug-In . SVG Version: 6.00 Build 0)  -->
<!DOCTYPE svg PUBLIC "-//W3C//DTD SVG 1.1//EN" "http://www.w3.org/Graphics/SVG/1.1/DTD/svg11.dtd">
<svg version="1.1" id="Layer_1" xmlns="http://www.w3.org/2000/svg" xmlns:xlink="http://www.w3.org/1999/xlink" x="0px" y="0px"
	 viewBox="0 0 50 50" enable-background="new 0 0 50 50" xml:space="preserve">
<path fill="#00DDCE" d="M13,36.4c-6.8,0-12.3-5.5-12.3-12.3S6.2,11.7,13,11.7s12.3,5.5,12.3,12.3S19.8,36.4,13,36.4z M13,13.9
	c-5.6,0-10.2,4.6-10.2,10.2S7.4,34.3,13,34.3s10.2-4.6,10.2-10.2S18.6,13.9,13,13.9z"/>
<path fill="#00DDCE" d="M13.2,33.8c-0.6,0-1.1-0.5-1.1-1.1v-1.5c-2-0.1-3.5-1.7-3.5-3.7c0-0.6,0.5-1.1,1.1-1.1
	c0.6,0,1.1,0.5,1.1,1.1c0,0.8,0.7,1.5,1.5,1.5h1.3c1.1,0,2-0.9,2-2c0-1.1-0.9-2-2-2h-0.9c-2.3,0-4.1-1.8-4.1-4.1c0-2,1.5-3.7,3.5-4
	v-1.6c0-0.6,0.5-1.1,1.1-1.1s1.1,0.5,1.1,1.1v1.5c2,0.1,3.5,1.7,3.5,3.7v0.9c0,0.6-0.5,1.1-1.1,1.1s-1.1-0.5-1.1-1.1v-0.9
	c0-0.8-0.7-1.5-1.5-1.5h-1.3c-1.1,0-2,0.9-2,2c0,1.1,0.9,2,2,2h0.9c2.3,0,4.1,1.8,4.1,4.1c0,2-1.5,3.7-3.5,4v1.6
	C14.2,33.3,13.8,33.8,13.2,33.8z"/>
<path fill="#5B2D88" d="M3.6,50c-0.7,0-1.2-0.1-1.5-0.4c-0.4-0.4-0.4-0.9-0.4-1.4l0-3.4H1.1c-0.6,0-1.1-0.5-1.1-1.1v-5.2
	c0-0.6,0.5-1.1,1.1-1.1h22.5c0,0,0.5,0,0.8,0.4c0.2,0.2,0.2,0.6,0.2,0.6v4.1h0.7c0.6,0,1.1,0.5,1.1,1.1v5.2c0,0.6-0.5,1.1-1.1,1.1
	H3.6z M24.2,47.9v-3.1H3.9v3.1H24.2z M22.5,42.7v-3.1H2.1v3.1H22.5z"/>
<path fill="#5B2D88" d="M31,42.8c-0.6,0-1.1-0.5-1.1-1.1V16.8h-5c-0.4,0-0.8-0.2-1-0.6c-0.2-0.4-0.1-0.8,0.1-1.1L36.2,0.4
	C36.4,0.1,36.7,0,37,0s0.6,0.1,0.8,0.4l12.1,14.7c0.3,0.3,0.3,0.7,0.1,1.1c-0.2,0.4-0.5,0.6-1,0.6h-5v17.7c0,0.6-0.5,1.1-1.1,1.1
	S42,35.1,42,34.5V15.8c0-0.6,0.5-1.1,1.1-1.1h3.8L37,2.7l-9.9,12H31c0.6,0,1.1,0.5,1.1,1.1v24.9h10v-2.3c0-0.6,0.5-1.1,1.1-1.1
	s1.1,0.5,1.1,1.1v3.4c0,0.6-0.5,1.1-1.1,1.1H31z"/>
<path fill="#5B2D88" d="M43.1,44.3H31c-0.4,0-0.8,0.5-0.8,1.1c0,0.6,0.4,1.1,0.8,1.1h12.1c0.4,0,0.8-0.5,0.8-1.1
	C43.9,44.8,43.5,44.3,43.1,44.3z"/>
<path fill="#5B2D88" d="M43.1,47.9H31c-0.4,0-0.8,0.5-0.8,1.1c0,0.6,0.4,1.1,0.8,1.1h12.1c0.4,0,0.8-0.5,0.8-1.1
	C43.9,48.4,43.5,47.9,43.1,47.9z"/>
</svg>
