<?xml version="1.0" encoding="utf-8"?>
<!-- Generator: Adobe Illustrator 18.0.0, SVG Export Plug-In . SVG Version: 6.00 Build 0)  -->
<!DOCTYPE svg PUBLIC "-//W3C//DTD SVG 1.1//EN" "http://www.w3.org/Graphics/SVG/1.1/DTD/svg11.dtd">
<svg version="1.1" id="Layer_1" xmlns="http://www.w3.org/2000/svg" xmlns:xlink="http://www.w3.org/1999/xlink" x="0px" y="0px"
	 viewBox="0 0 150 150" enable-background="new 0 0 150 150" xml:space="preserve">
<g>
	<path fill="#FFFFFF" d="M110.4,31.5c0,0-12-16.2-12.6-16.7c-0.5-0.4-1.1-0.5-1.7-0.6c-0.1,0-0.2,0-0.3,0c-0.1,0-0.2,0-0.3,0
		c-0.6,0-1.2,0.2-1.7,0.6c-0.6,0.4-12.6,16.7-12.6,16.7c-1,1.3-0.8,3.2,0.6,4.2c0.5,0.4,1.2,0.6,1.8,0.6c0.9,0,1.8-0.4,2.4-1.2
		l7-9.1V69H48c-1.7,0-3,1.3-3,3v60c0,1.7,1.3,3,3,3s3-1.3,3-3V75h45c1.7,0,3-1.3,3-3V26.6l6.6,8.6c0.6,0.8,1.5,1.2,2.4,1.2
		c0.6,0,1.3-0.2,1.8-0.6C111.1,34.7,111.4,32.9,110.4,31.5z"/>
	<g>
		<path fill="#5B2D88" d="M84,0h-9H63H12.8c-3.5,0-6.7,1.4-9,3.8S0,9.3,0,12.8V75v62.2c0,3.5,1.4,6.7,3.8,9c1.9,1.9,4.3,3.1,7.1,3.5
			c0.4,0.2,0.8,0.2,1.2,0.2h0.8H33c1.7,0,3-1.3,3-3s-1.3-3-3-3H15v-39h9c1.7,0,3-1.3,3-3V60c0-1.7-1.3-3-3-3H12c-1.7,0-3,1.3-3,3
			s1.3,3,3,3h9v36h-6V87c0-1.7-1.3-3-3-3s-3,1.3-3,3v55.7c-0.3-0.2-0.6-0.5-0.9-0.8c-1.2-1.2-2.1-3-2.1-4.7V75V51h18
			c1.7,0,3-1.3,3-3s-1.3-3-3-3H6V12.8c0-1.7,0.9-3.5,2.1-4.7c1.2-1.2,3-2.1,4.7-2.1H15v24c0,1.7,1.3,3,3,3s3-1.3,3-3V6h9v15
			c0,1.7,1.3,3,3,3h21v9c0,1.7,1.3,3,3,3s3-1.3,3-3V21c0-1.7-1.3-3-3-3H36V6h27h3v39H48V33c0-1.7-1.3-3-3-3s-3,1.3-3,3v12h-6
			c-1.7,0-3,1.3-3,3s1.3,3,3,3h33c1.7,0,3-1.3,3-3V6h3h9c1.7,0,3-1.3,3-3S85.7,0,84,0z"/>
		<path fill="#5B2D88" d="M135,60h-15V48c0-1.7-1.3-3-3-3s-3,1.3-3,3v24c0,1.7,1.3,3,3,3s3-1.3,3-3v-6h15c1.7,0,3-1.3,3-3
			S136.7,60,135,60z"/>
		<path fill="#5B2D88" d="M146.2,3.8c-2.3-2.3-5.5-3.8-9-3.8H135h-21c-1.7,0-3,1.3-3,3s1.3,3,3,3h21h2.2c1.7,0,3.5,0.9,4.7,2.1
			c1.2,1.2,2.1,3,2.1,4.7V48h-12V33h6c1.7,0,3-1.3,3-3s-1.3-3-3-3h-9c-1.7,0-3,1.3-3,3v21c0,1.7,1.3,3,3,3h15v21v24h6V75V12.8
			C150,9.3,148.6,6.1,146.2,3.8z"/>
		<path fill="#5B2D88" d="M60,147c0,1.7,1.3,3,3,3h12v-6H63C61.3,144,60,145.3,60,147z"/>
	</g>
	<path fill="#FFFFFF" d="M144,93h-21v-9c0-1.7-1.3-3-3-3H99c-1.7,0-3,1.3-3,3v9H75c-3.3,0-6,2.7-6,6v45c0,3.3,2.7,6,6,6h69
		c3.3,0,6-2.7,6-6V99C150,95.7,147.3,93,144,93z M102,87h15v6h-15V87z M144,117h-3c-1.7,0-3,1.3-3,3s1.3,3,3,3h3v21H75v-21h30v3.9
		c0,2.5,2,4.6,4.5,4.6s4.5-2,4.5-4.6V123h15c1.7,0,3-1.3,3-3s-1.3-3-3-3H75V99h69V117z"/>
</g>
</svg>
