<?xml version="1.0" encoding="utf-8"?>
<!-- Generator: Adobe Illustrator 18.0.0, SVG Export Plug-In . SVG Version: 6.00 Build 0)  -->
<!DOCTYPE svg PUBLIC "-//W3C//DTD SVG 1.1//EN" "http://www.w3.org/Graphics/SVG/1.1/DTD/svg11.dtd">
<svg version="1.1" id="Layer_1" xmlns="http://www.w3.org/2000/svg" xmlns:xlink="http://www.w3.org/1999/xlink" x="0px" y="0px"
	 viewBox="0 0 150 150" enable-background="new 0 0 150 150" xml:space="preserve">
<path fill="#5B2D88" d="M145.1,25.3h-15c-2.7,0-5.1,2.1-5.1,5.1v5.1c0,0.9,0.3,1.8,0.6,2.4c-0.3,0.9-0.6,1.5-0.6,2.4v5.1
	c0,0.9,0.3,1.8,0.6,2.4c-0.3,0.9-0.6,1.5-0.6,2.4v5.1c0,0.3,0,0.6,0,0.9l-37.8,18c-4.2-6-12-8.1-18.6-4.8c-6.6,3-9.9,10.5-7.8,17.7
	l-35.7,16.5V100c0-0.9-0.3-1.8-0.6-2.4c0.3-0.9,0.6-1.5,0.6-2.4v-5.1c0-0.9-0.3-1.8-0.6-2.4c0.3-0.9,0.6-1.5,0.6-2.4v-5.1
	c0-0.9-0.3-1.8-0.6-2.4c0.3-0.9,0.6-1.5,0.6-2.4v-5.1c0-0.9-0.3-1.8-0.6-2.4c0.3-0.9,0.6-1.5,0.6-2.4v-5.4c0-0.9-0.3-1.8-0.6-2.4
	c0.3-0.9,0.6-1.5,0.6-2.4v-5.1c0-2.7-2.1-5.1-5.1-5.1H5c-2.7,0-5.1,2.1-5.1,5.1v5.1c0,0.9,0.3,1.8,0.6,2.4c0,0.9-0.3,1.8-0.3,2.4
	v5.1c0,0.9,0.3,1.8,0.6,2.4c-0.3,0.9-0.6,1.5-0.6,2.4v5.1c0,0.9,0.3,1.8,0.6,2.4c-0.3,0.9-0.6,1.5-0.6,2.4V85c0,0.9,0.3,1.8,0.6,2.4
	c-0.3,1.2-0.6,1.8-0.6,2.7v5.1c0,0.9,0.3,1.8,0.6,2.4c-0.3,0.9-0.6,1.5-0.6,2.4v5.1c0,0.6,0,0.9,0.3,1.5c-0.3,0.9-0.3,1.8,0,2.4
	c0.6,0.6,1.2,1.2,2.1,1.2h20.1c0.3,0,0.6,0,1.2-0.3l39-18.6c0.6,0.6,0.9,1.2,1.5,1.8c-3.9,0.9-6.6,3.9-6.9,7.8
	c0,1.5,1.2,2.4,2.4,2.4c1.5,0,2.4-1.2,2.4-2.4c0-1.8,2.4-3.3,5.1-3.3c2.7,0.3,4.5,2.4,4.5,5.4c0,21.6-9.3,32.1-29.4,32.1h-2.4
	c-4.2,0-7.5,3.3-7.5,7.5c0,4.2,3.3,7.5,7.5,7.5H110c4.2,0,7.5-3.3,7.5-7.5c0-4.2-3.3-7.5-7.5-7.5h-2.4c-20.1,0-29.4-10.5-29.4-32.4
	c0-2.7,1.8-4.8,4.5-5.1c2.7,0,5.1,1.5,5.1,3.3c0,1.5,1.2,2.4,2.4,2.4c1.5,0,2.4-1.2,2.4-2.4c-0.3-3.9-3-6.9-6.9-7.8
	c3.9-3.9,5.1-9.3,3.6-14.4L128,60.1h19.5c0.9,0,1.5-0.3,2.1-1.2c0.6-0.6,0.6-1.5,0-2.4c0.3-0.6,0.3-0.9,0.3-1.5v-5.1
	c0-0.9-0.3-1.8-0.6-2.4c0.3-0.9,0.6-1.5,0.6-2.4V40c0-0.9-0.3-1.8-0.6-2.4c0.3-0.9,0.6-1.5,0.6-2.4v-5.1
	C149.9,27.4,147.8,25.3,145.1,25.3L145.1,25.3z M20.3,105.1H4.8V100h15.6V105.1z M20.3,95.2H4.8v-5.1h15.6V95.2z M20.3,85.3H4.8
	v-5.1h15.6V85.3z M20.3,75.1H4.8V70h15.6V75.1z M20.3,65.2H4.8v-5.1h15.6V65.2z M20.3,55.3H4.8v-5.1h15.6V55.3z M109.4,141.1
	c1.5,0,2.1,0,2.1,1.5s-0.9,1.5-2.1,1.5H41.6c-1.5,0-2.7,0-2.7-1.5s1.2-1.5,2.7-1.5H109.4z M87.2,135.1h-24c7.2-4.2,9.9-9,12-15.6
	C77.3,126.1,79.7,130.9,87.2,135.1L87.2,135.1z M75.2,92.8c-5.4,0-9.9-4.5-9.9-9.9c0-5.4,4.5-9.9,9.9-9.9c5.4,0,9.9,4.5,9.9,9.9
	C85.1,88.3,80.6,92.8,75.2,92.8L75.2,92.8z M145.1,55.3h-15v-5.1h15V55.3z M145.1,45.4h-15v-5.1h15V45.4z M145.1,35.2h-15v-5.1h15
	V35.2z"/>
<path fill="#5B2D88" d="M12.8,115.3c-1.5,0-2.4,1.2-2.4,2.4v9l-3.3-3.3c-0.9-0.9-2.4-0.9-3.6,0c-0.9,0.9-0.9,2.4,0,3.6l7.5,7.5
	c0.3,0.3,1.2,0.6,1.8,0.6c0.6,0,1.2-0.3,1.8-0.6l7.5-7.5c0.9-0.9,0.9-2.4,0-3.6c-0.9-0.9-2.4-0.9-3.6,0l-3.3,3.3v-9
	C15.2,116.2,14,115.3,12.8,115.3L12.8,115.3z"/>
<path fill="#5B2D88" d="M137.6,20.2c1.5,0,2.4-1.2,2.4-2.4v-9l3.3,3.3c0.9,0.9,2.4,0.9,3.6,0c0.9-0.9,0.9-2.4,0-3.6L139.4,1
	c-0.3-0.3-0.6-0.3-0.9-0.6c-0.6-0.3-1.2-0.3-1.8,0c-0.3,0-0.6,0.3-0.9,0.6l-7.5,7.5c-0.9,0.9-0.9,2.4,0,3.6c0.9,0.9,2.4,0.9,3.6,0
	l3.3-3.3v9C135.2,19.3,136.1,20.2,137.6,20.2L137.6,20.2z"/>
<path fill="#FFFFFF" d="M58,41.2c9.4,9.4,24.8,9.4,34.2,0l0,0l0,0c9.4-9.4,9.4-24.8,0-34.2l0,0l0,0C82.8-2.5,67.4-2.5,58,7l0,0l0,0
	C48.3,16.4,48.3,31.8,58,41.2C57.7,41.2,57.7,41.2,58,41.2L58,41.2L58,41.2z M72.3,42.9c-3.1-0.6-6-1.7-8.6-3.7l4-4
	c1.4,0.9,3.1,1.7,4.9,2v5.7H72.3z M77.7,42.9v-5.7c1.7-0.3,3.4-1.1,4.9-2l4,4C84,41.2,80.8,42.3,77.7,42.9L77.7,42.9z M90.2,35.5
	l-4-4c0.9-1.4,1.7-3.1,2-4.9h5.4C93.4,29.8,91.9,32.9,90.2,35.5L90.2,35.5z M93.7,21.5h-5.4c-0.3-1.7-1.1-3.4-2-4.9l4-4
	C91.9,15.2,93.4,18.4,93.7,21.5L93.7,21.5z M77.7,5.2c3.1,0.6,6,1.7,8.6,3.7l-4,4c-1.4-0.9-3.1-1.7-4.9-2V5.2H77.7z M83.1,24.1
	c0,4.6-3.7,8-8,8c-4.6,0-8-3.7-8-8c0-4.6,3.7-8,8-8C79.7,16.1,83.1,19.5,83.1,24.1L83.1,24.1z M72.3,5.2v5.4c-1.7,0.3-3.4,1.1-4.9,2
	l-4-4C66.3,7,69.1,5.8,72.3,5.2L72.3,5.2z M60,12.7l4,4c-0.9,1.4-1.7,3.1-2,4.9h-5.4C56.8,18.4,58,15.2,60,12.7L60,12.7z M56.3,26.6
	h5.4c0.3,1.7,1.1,3.4,2,4.9l-4,4C58,32.9,56.8,29.8,56.3,26.6L56.3,26.6z"/>
</svg>
