<?xml version="1.0" encoding="utf-8"?>
<!-- Generator: Adobe Illustrator 18.0.0, SVG Export Plug-In . SVG Version: 6.00 Build 0)  -->
<!DOCTYPE svg PUBLIC "-//W3C//DTD SVG 1.1//EN" "http://www.w3.org/Graphics/SVG/1.1/DTD/svg11.dtd">
<svg version="1.1" id="Layer_1" xmlns="http://www.w3.org/2000/svg" xmlns:xlink="http://www.w3.org/1999/xlink" x="0px" y="0px"
	 viewBox="0 0 150 150" enable-background="new 0 0 150 150" xml:space="preserve">
<g>
	<path fill="#FFFFFF" d="M63.9,36.4l-2.8,1l-2.8-1L45,73v5c0,8,7.2,16,16,16s16-8,16-16v-5l0,0L63.9,36.4z M61.1,43.2L71.7,73H50.6
		L61.1,43.2z M60.9,88.9C54.9,88.9,50,84,50,78h21.8C71.8,84,66.9,88.9,60.9,88.9z"/>
	<path fill="#FFFFFF" d="M149,73l-13.1-36.7l-2.8,0.9l-2.8-0.9L117,73v5c0,8,7.2,16,16,16s16-8,16-16V73L149,73z M133.1,43.2
		L143.7,73h-21.1L133.1,43.2z M132.9,88.9c-6,0-10.9-4.9-10.9-10.9h21.8C143.8,84,138.9,88.9,132.9,88.9z"/>
</g>
<path fill="#FFFFFF" d="M139.2,36h-29.3c-1.3-5.9-6.5-10.2-12.8-10.2S85.6,30.1,84.3,36H55.1c-1.3,0-2.4,1.2-2.4,2.5
	c0,1.3,1.1,2.5,2.4,2.5h29c0.9,5.5,5.3,9.9,10.8,10.8V106H84.3c-1.3,0-2.4,1.2-2.4,2.5c0,1.3,1.1,2.5,2.4,2.5H110
	c1.3,0,2.4-1.2,2.4-2.5c0-1.3-1.1-2.5-2.4-2.5h-10V51.7c5.2-1.2,9.2-5.4,10.1-10.7h29.1c1.3,0,2.4-1.2,2.4-2.5
	C141.6,37.2,140.5,36,139.2,36z M100,46.5L100,46.5c-0.2,0.1-0.4,0.2-0.7,0.2c0,0,0,0,0,0c-0.2,0.1-0.4,0.1-0.6,0.1
	c-0.1,0-0.2,0-0.2,0c-0.2,0-0.3,0.1-0.5,0.1c-0.3,0-0.5,0-0.8,0c-0.4,0-0.7,0-1-0.1c0,0-0.1,0-0.1,0c-0.3,0-0.6-0.1-1-0.2l0,0
	c-2.8-0.7-5-2.9-5.8-5.7c-0.1-0.3-0.2-0.7-0.2-1c0-0.1,0-0.1,0-0.2c0-0.4-0.1-0.7-0.1-1.1c0-0.3,0-0.5,0-0.8c0-0.1,0-0.3,0.1-0.4
	c0-0.1,0-0.2,0-0.3c0-0.2,0.1-0.4,0.1-0.6c0,0,0-0.1,0-0.1c0.1-0.2,0.1-0.4,0.2-0.6c1.1-3.2,4.2-5.5,7.8-5.5s6.6,2.3,7.8,5.5
	c0.1,0.2,0.1,0.4,0.2,0.6c0,0,0,0.1,0,0.1c0,0.2,0.1,0.4,0.1,0.6c0,0.1,0,0.2,0,0.3c0,0.1,0,0.3,0.1,0.4c0,0.3,0,0.5,0,0.8
	c0,0.4,0,0.7-0.1,1.1c0,0.1,0,0.1,0,0.2c-0.1,0.3-0.1,0.7-0.2,1C104.3,43.5,102.4,45.6,100,46.5z"/>
<path fill="#5B2D88" d="M147.1,128H133v-17h-0.1c0-0.2,0.1-0.3,0.1-0.5c0-1.4-1.1-2.5-2.5-2.5s-2.5,1.1-2.5,2.5c0,0.2,0,0.3,0.1,0.5
	H128v17H63.9c-1.6,0-2.9,1.5-2.9,3.1c0,0.1-0.1,0.6-0.1,0.7c0,6.8-5.6,12.4-12.4,12.4S35,138.6,35,131.8V19.4
	c0-3.3-0.8-9.8-5.5-14.4h85.9c7.1,0,12.6,7,12.6,13v18h5V18c0-9-7.2-18-17.6-18H20.6c-0.2,0-1.9,0-2.5,0C8.1,0,0,8.6,0,18.6
	C0,20.2,1.3,22,2.9,22H30v109.8c0,10,8.6,18.2,18.6,18.2h82.6c10.3,0,18.8-8.6,18.8-18.9C150,129.5,148.7,128,147.1,128z M4.9,17
	C6.2,11,9.9,4.9,18.2,4.9c8.2,0,10.6,6.1,11.9,12.1H4.9z M131.3,145H60.8c2.5-2.7,4.5-8,4.9-12h78.8C143.3,139,137.4,145,131.3,145z
	"/>
</svg>
