<?xml version="1.0" encoding="utf-8"?>
<!-- Generator: Adobe Illustrator 18.0.0, SVG Export Plug-In . SVG Version: 6.00 Build 0)  -->
<!DOCTYPE svg PUBLIC "-//W3C//DTD SVG 1.1//EN" "http://www.w3.org/Graphics/SVG/1.1/DTD/svg11.dtd">
<svg version="1.1" id="Layer_1" xmlns="http://www.w3.org/2000/svg" xmlns:xlink="http://www.w3.org/1999/xlink" x="0px" y="0px"
	 viewBox="0 0 50 50" enable-background="new 0 0 50 50" xml:space="preserve">
<path fill="#5B2D88" d="M50,47.4v-28c0-0.1-0.1-0.2-0.1-0.3L39.2,9.1C39.1,9,39,9,39,8.8V1.4c0-0.1,0-0.1,0-0.1c0-0.1,0-0.1,0-0.2
	C39,0.5,38.5,0,38,0c-0.6,0-1.1,0.5-1.1,1.1c0,0.1,0,0.1,0,0.2c0,0.1,0,0.1,0,0.1v41.7c0,0.2-0.1,0.3-0.3,0.3h-2.1
	c-0.2,0-0.3-0.1-0.3-0.3V9.7c0-0.1,0-0.1,0-0.1c0-0.1,0-0.1,0-0.2c0-0.6-0.5-1.1-1.1-1.1c-0.6,0-1.1,0.5-1.1,1.1c0,0.1,0,0.1,0,0.2
	c0,0.1,0,0.1,0,0.1v7.5c0,0.1-0.1,0.2-0.1,0.3l-10.4,7.2c-0.4,0.3-0.6,0.8-0.6,1.3v9.9c0,0.2-0.1,0.3-0.3,0.3h-2.1
	c-0.2,0-0.3-0.1-0.3-0.3v-7.9c0-0.8-0.8-1.4-1.6-1.2L1,31.1c-0.6,0.2-1,0.8-1,1.4v15.2v0.9C0,49.4,0.6,50,1.4,50h0.9h1.5H6h43.6
	c0,0,0.2,0,0.3-0.1c0.1-0.1,0.1-0.4,0.1-0.4V47.4z M3.7,36.4v11c0,0.2-0.1,0.3-0.3,0.3H2.5c-0.2,0-0.3-0.1-0.3-0.3v-14
	c0-0.1,0.1-0.3,0.3-0.3l13.1-3.8c0.2-0.1,0.5,0.1,0.5,0.3v6.2c0,0.2-0.1,0.3-0.3,0.3H4C3.8,36.1,3.7,36.2,3.7,36.4z M23.1,43
	c0,0.2-0.1,0.3-0.3,0.3H9.5c-0.6,0-1.1,0.5-1.1,1.1c0,0.6,0.5,1.1,1.1,1.1h0.1h13.1c0.2,0,0.3,0.1,0.3,0.3v1.4
	c0,0.2-0.1,0.3-0.3,0.3H6.3c-0.2,0-0.3-0.1-0.3-0.3v-8.7c0-0.2,0.1-0.3,0.3-0.3h16.5c0.2,0,0.3,0.1,0.3,0.3V43z M32,47.4h-0.1
	c0,0.2-0.1,0.3-0.3,0.3h-5.9c-0.2,0-0.3-0.1-0.3-0.3v-9.7c0-0.8-0.7-1.5-1.5-1.5h-0.3c-0.2,0-0.3-0.1-0.3-0.3v-9.5
	c0-0.1,0.1-0.2,0.1-0.3l8.2-5.2c0.2-0.2,0.6-0.1,0.6,0.3V47.4z M36.9,47.4c0,0.2-0.1,0.3-0.3,0.3h-2.1c-0.2,0-0.3-0.1-0.3-0.3v-1.4
	c0-0.2,0.1-0.3,0.3-0.3h2.1c0.2,0,0.3,0.1,0.3,0.3V47.4z M47.9,47.4L47.9,47.4c-0.1,0.2-0.2,0.3-0.4,0.3h-8.1
	c-0.2,0-0.3-0.1-0.3-0.3V12.8c0-0.3,0.3-0.5,0.6-0.3l8.1,7.6c0.1,0.1,0.1,0.1,0.1,0.3V47.4z"/>
<g>
	<path fill="#00DDCE" d="M12.2,15.4c-0.4,0.4-0.4,1.1,0,1.6c0.4,0.4,1.1,0.4,1.6,0c3-3,7.9-3,10.8,0c0.2,0.2,0.5,0.3,0.8,0.3
		s0.6-0.1,0.8-0.3c0.4-0.4,0.4-1.1,0-1.6C22.3,11.6,16,11.6,12.2,15.4L12.2,15.4z M12.2,15.4"/>
	<path fill="#00DDCE" d="M15.2,18.4c-0.4,0.4-0.4,1.1,0,1.6c0.4,0.4,1.1,0.4,1.6,0c1.3-1.3,3.5-1.3,4.8,0c0.2,0.2,0.5,0.3,0.8,0.3
		c0.3,0,0.6-0.1,0.8-0.3c0.4-0.4,0.4-1.1,0-1.6C21,16.2,17.4,16.2,15.2,18.4L15.2,18.4z M15.2,18.4"/>
	<g>
		<path fill="#00DDCE" d="M20.6,22.4c0,0.8-0.7,1.5-1.5,1.5c-0.8,0-1.5-0.7-1.5-1.5c0-0.8,0.7-1.5,1.5-1.5
			C20,20.9,20.6,21.6,20.6,22.4L20.6,22.4z M20.6,22.4"/>
		<path fill="#00DDCE" d="M29.2,12.4c-5.5-5.5-14.5-5.5-20.1,0c-0.4,0.4-0.4,1.1,0,1.6c0.4,0.4,1.1,0.4,1.6,0
			c4.7-4.7,12.3-4.7,16.9,0c0.2,0.2,0.5,0.3,0.8,0.3c0.3,0,0.6-0.1,0.8-0.3C29.6,13.5,29.6,12.8,29.2,12.4L29.2,12.4z M29.2,12.4"/>
	</g>
</g>
</svg>
