<?xml version="1.0" encoding="utf-8"?>
<!-- Generator: Adobe Illustrator 18.0.0, SVG Export Plug-In . SVG Version: 6.00 Build 0)  -->
<!DOCTYPE svg PUBLIC "-//W3C//DTD SVG 1.1//EN" "http://www.w3.org/Graphics/SVG/1.1/DTD/svg11.dtd">
<svg version="1.1" id="Layer_1" xmlns="http://www.w3.org/2000/svg" xmlns:xlink="http://www.w3.org/1999/xlink" x="0px" y="0px"
	 viewBox="0 0 150 150" enable-background="new 0 0 150 150" xml:space="preserve">
<path fill-rule="evenodd" clip-rule="evenodd" fill="#5B2D88" d="M55.5,49.5c1.5,0.5,3.2-0.3,3.7-1.9c4.6-13.9,17.5-23.3,32.2-23.3
	c18.7,0,33.9,15.2,33.9,33.9c0,14.5-6.5,23.1-11.7,30c-3.8,5-7.1,9.4-7.1,14.7c0,0.3,0,0.7,0,1H76.2c0-0.3,0-0.7,0-1
	c0-5.3-3.3-9.6-7.1-14.7c-3.8-5.1-8.2-10.9-10.3-19.1c-0.4-1.6-2-2.5-3.6-2.1c-1.6,0.4-2.5,2-2.1,3.6c2.4,9.3,7.4,15.9,11.3,21.2
	c3.3,4.4,5.9,7.8,5.9,11.2c0,1.4,0.1,2.8,0.2,4.1v24.8c0,0.1,0,0.2,0,0.2c0,0,0,0,0,0.1c0,0.1,0,0.2,0,0.3v0c1,4.8,3.6,9.1,7.3,12.2
	c3.8,3.2,8.6,4.9,13.5,4.9c4.9,0,9.7-1.7,13.5-4.9c3.7-3.1,6.3-7.4,7.3-12.2c0,0,0,0,0,0c0-0.1,0-0.2,0-0.3c0,0,0,0,0-0.1
	c0-0.1,0-0.2,0-0.2v-24.8c0.1-1.3,0.2-2.7,0.2-4.1c0-3.3,2.6-6.8,5.9-11.2c5.4-7.2,12.8-17.1,12.8-33.5c0-21.9-17.8-39.8-39.8-39.8
	c-17.2,0-32.4,11-37.8,27.3C53.1,47.4,54,49,55.5,49.5L55.5,49.5z M91.4,143.8c-6,0-11.3-3.6-13.9-9h27.7
	C102.7,140.2,97.4,143.8,91.4,143.8L91.4,143.8z M106.4,129h-30v-6.6h30V129z M106.4,116.5h-30v-6.6h30V116.5z M106.4,116.5"/>
<path fill-rule="evenodd" clip-rule="evenodd" fill="#5B2D88" d="M91.4,13.3c1.6,0,2.9-1.3,2.9-2.9V2.6c0-1.6-1.3-2.9-2.9-2.9
	c-1.6,0-2.9,1.3-2.9,2.9v7.8C88.5,12,89.8,13.3,91.4,13.3L91.4,13.3z M91.4,13.3"/>
<path fill-rule="evenodd" clip-rule="evenodd" fill="#5B2D88" d="M55.4,26.5c0.6,0.6,1.3,0.9,2.1,0.9s1.5-0.3,2.1-0.9
	c1.1-1.1,1.1-3,0-4.1l-5.5-5.5c-1.1-1.1-3-1.1-4.1,0c-1.1,1.1-1.1,3,0,4.1L55.4,26.5z M55.4,26.5"/>
<path fill-rule="evenodd" clip-rule="evenodd" fill="#5B2D88" d="M50,102.7c0.7,0,1.5-0.3,2.1-0.9l5.5-5.5c1.1-1.1,1.1-3,0-4.1
	c-1.1-1.1-3-1.1-4.1,0l-5.5,5.5c-1.1,1.1-1.1,3,0,4.1C48.5,102.4,49.2,102.7,50,102.7L50,102.7z M50,102.7"/>
<path fill-rule="evenodd" clip-rule="evenodd" fill="#5B2D88" d="M125.3,27.4c0.7,0,1.5-0.3,2.1-0.9l5.5-5.5c1.1-1.1,1.1-3,0-4.1
	c-1.1-1.1-3-1.1-4.1,0l-5.5,5.5c-1.1,1.1-1.1,3,0,4.1C123.8,27.1,124.6,27.4,125.3,27.4L125.3,27.4z M125.3,27.4"/>
<path fill-rule="evenodd" clip-rule="evenodd" fill="#5B2D88" d="M125.3,92.2c-1.1,1.1-1.1,3,0,4.1l5.5,5.5c0.6,0.6,1.3,0.9,2.1,0.9
	c0.7,0,1.5-0.3,2.1-0.9c1.1-1.1,1.1-3,0-4.1l-5.5-5.5C128.3,91,126.4,91,125.3,92.2L125.3,92.2z M125.3,92.2"/>
<path fill-rule="evenodd" clip-rule="evenodd" fill="#5B2D88" d="M139.4,61.3h7.8c1.6,0,2.9-1.3,2.9-2.9c0-1.6-1.3-2.9-2.9-2.9h-7.8
	c-1.6,0-2.9,1.3-2.9,2.9C136.4,60,137.7,61.3,139.4,61.3L139.4,61.3z M139.4,61.3"/>
<path fill="#FFFFFF" d="M7,44.1C-2.3,53.5-2.3,68.7,7,78c9.3,9.3,24.5,9.3,33.9,0c4.7-4.7,7-10.9,7-17.1l18.1,0L66,74
	c0,1.6,1.3,2.8,2.8,2.8c0.8,0,1.5-0.3,2-0.8c0.5-0.5,0.8-1.2,0.8-2l0-13.1l4.3,0l0,9.1c0,1.6,1.3,2.8,2.8,2.8c0.8,0,1.5-0.3,2-0.8
	c0.5-0.5,0.8-1.2,0.8-2v-9.1l4.3,0V74c0,1.6,1.3,2.8,2.8,2.8c0.8,0,1.5-0.3,2-0.8c0.5-0.5,0.8-1.2,0.8-2l0-13.1l7.2,0
	c0.8,0,1.5-0.3,2-0.8c0.5-0.5,0.8-1.2,0.8-2c0-1.6-1.3-2.8-2.8-2.8l-51.5,0c-1-4.1-3.1-8-6.3-11.1C31.6,34.8,16.3,34.8,7,44.1
	L7,44.1z M36.9,74c-7.1,7.1-18.8,7.1-25.9,0c-7.1-7.1-7.2-18.8,0-25.9c7.1-7.1,18.8-7.1,25.9,0C44.1,55.3,44.1,66.9,36.9,74L36.9,74
	z M36.9,74"/>
</svg>
