<?xml version="1.0" encoding="utf-8"?>
<!-- Generator: Adobe Illustrator 18.0.0, SVG Export Plug-In . SVG Version: 6.00 Build 0)  -->
<!DOCTYPE svg PUBLIC "-//W3C//DTD SVG 1.1//EN" "http://www.w3.org/Graphics/SVG/1.1/DTD/svg11.dtd">
<svg version="1.1" id="Layer_1" xmlns="http://www.w3.org/2000/svg" xmlns:xlink="http://www.w3.org/1999/xlink" x="0px" y="0px"
	 viewBox="0 0 150 150" enable-background="new 0 0 150 150" xml:space="preserve">
<path fill="#5B2D88" d="M94,6H84V4.3C84,2.6,83.7,0,82,0H58c-1.7,0-4,2.6-4,4.3V6h-2.2H48h-6H16C7.7,6,0,14,0,22.3V144v6h96v-6v-21
	h0c0-0.8-0.3-1.5-0.9-2.1c-0.6-0.6-1.3-0.9-2.1-0.9s-1.6,0.3-2.1,0.9c-0.5,0.5-0.9,1.3-0.9,2.1h0v21H24V12h30v22.3c0,1,1,2,1.9,2.6
	c0.9,0.5,2.2,0.6,3.2,0.1l10.8-5.3L80.6,37c0.4,0.2,0.9,0.3,1.4,0.3c0.5,0,0.6-0.1,1.1-0.4c0.9-0.5,0.9-1.5,0.9-2.6V12h6v42h0
	c0,0.8,0.3,1.5,0.9,2.1c0.6,0.6,1.3,0.9,2.1,0.9s1.6-0.3,2.1-0.9c0.5-0.5,0.9-1.3,0.9-2.1h0V10.3C96,8.6,95.7,6,94,6z M18,144H6
	V22.3c0-5,5-10.3,10-10.3h2V144z M78,29.4l-7.2-3.8c-0.4-0.2-0.6-0.3-1.1-0.3s-1.3,0.1-1.7,0.3l-8,3.8V6h18V29.4z"/>
<g>
	<path fill="#5B2D88" d="M95.1,67.4c-0.6-0.6-1.3-0.9-2.1-0.9c-0.8,0-1.6,0.3-2.1,0.9C90.3,68,90,68.7,90,69.5v12.6
		c0,0.8,0.3,1.6,0.9,2.1c0.6,0.6,1.3,0.9,2.1,0.9c0.8,0,1.6-0.3,2.1-0.9c0.6-0.6,0.9-1.3,0.9-2.1V69.5C96,68.7,95.7,68,95.1,67.4z"
		/>
	<path fill="#5B2D88" d="M93,91.7c-0.8,0-1.6,0.3-2.1,0.9c-0.6,0.6-0.9,1.3-0.9,2.1v12.6c0,0.8,0.3,1.6,0.9,2.1
		c0.6,0.6,1.3,0.9,2.1,0.9c0.8,0,1.6-0.3,2.1-0.9c0.6-0.6,0.9-1.3,0.9-2.1V94.7c0-0.8-0.3-1.6-0.9-2.1C94.6,92,93.8,91.7,93,91.7z"
		/>
</g>
<path fill="#FFFFFF" d="M147.2,51.4c-15.2-4.2-31.1-10.6-44.8-18.8c-0.5-0.3-0.9-0.4-1.4-0.4s-0.9,0.1-1.4,0.4
	c-14.1,8.3-28.3,14.5-44,18.8c-0.7,0.2-0.9,0.6-1.2,1.2c-0.4,0.4-0.5,1-0.5,1.6v23.8c0,14,3.5,25.2,8.4,34c3.7,6.9,8,12.3,12.2,16.4
	c10.3,10.1,21.9,15.7,26.3,15.7s17.1-5.6,27.5-15.7c9.6-9.4,21.6-25.8,21.6-50.5V54.3C150,52.9,148.5,51.8,147.2,51.4z M124.3,124.4
	c-9.9,9.7-20.9,14-23.2,14s-12.6-4.3-22.5-14C69.9,115.8,60,100.8,60,78.1V56.5c15-4.2,27.4-9.3,40.9-17.1
	C113.8,46.9,129,53,144,57.1v20.9c0,17.8-6.7,30.9-13.7,40C128.4,120.4,126.2,122.6,124.3,124.4z"/>
</svg>
