<?xml version="1.0" encoding="utf-8"?>
<!-- Generator: Adobe Illustrator 18.0.0, SVG Export Plug-In . SVG Version: 6.00 Build 0)  -->
<!DOCTYPE svg PUBLIC "-//W3C//DTD SVG 1.1//EN" "http://www.w3.org/Graphics/SVG/1.1/DTD/svg11.dtd">
<svg version="1.1" id="Layer_1" xmlns="http://www.w3.org/2000/svg" xmlns:xlink="http://www.w3.org/1999/xlink" x="0px" y="0px"
	 viewBox="0 0 150 150" enable-background="new 0 0 150 150" xml:space="preserve">
<path fill="#5B2D88" d="M137.2,0h-125C5.3,0-0.2,5.6-0.3,12.5v95c0,6.9,5.6,12.5,12.5,12.5h47.3c-1.1,7.7-6.8,15-12.3,15
	c-4.1,0-7.5,3.4-7.5,7.5s3.4,7.5,7.5,7.5h55c4.1,0,7.5-3.4,7.5-7.5s-3.4-7.5-7.5-7.5c-5.5,0-11.2-7.3-12.3-15h47.3
	c6.9,0,12.5-5.6,12.5-12.5v-95C149.7,5.6,144.2,0,137.2,0L137.2,0z M12.3,5h125c4.1,0,7.5,3.4,7.5,7.5V95H4.7V12.5
	C4.7,8.4,8.1,5,12.3,5L12.3,5z M102.3,145h-55c-1.4,0-2.5-1.1-2.5-2.5c0-1.4,1.1-2.5,2.5-2.5h55c1.4,0,2.5,1.1,2.5,2.5
	C104.8,143.9,103.6,145,102.3,145L102.3,145z M91.9,135H57.6c3.9-4.1,6.4-9.4,7-15h20.3C85.5,125.6,88,130.9,91.9,135L91.9,135z
	 M144.8,107.5c0,4.1-3.4,7.5-7.5,7.5h-125c-4.1,0-7.5-3.4-7.5-7.5V100h140V107.5z M144.8,107.5"/>
<path fill="#FFFFFF" d="M66,72c6.7,0,13-2.7,17.7-7.4l20.7,16.8c1.1,0.9,2.6,0.7,3.5-0.4c0.9-1.1,0.7-2.6-0.4-3.5L86.9,60.7
	c6.3-9.6,5.3-22.2-2.5-30.6c-7.7-8.4-20.2-10.5-30.3-5.1C44,30.5,39,42,41.8,53.1C44.6,64.2,54.6,72,66,72L66,72z M66,27
	c11,0,20,9,20,20c0,11-9,20-20,20s-20-9-20-20C46,36,55,27,66,27L66,27z M66,27"/>
</svg>
