<svg height="480pt" viewBox="0 0 480.01065 480" width="480pt" xmlns="http://www.w3.org/2000/svg" xmlns:xlink="http://www.w3.org/1999/xlink"><linearGradient id="a"><stop offset="0" stop-color="#47c0bb"/><stop offset="1" stop-color="#0063ae"/></linearGradient><linearGradient id="b" gradientUnits="userSpaceOnUse" x1="-7.994286" x2="465.085714" xlink:href="#a" y1="239.991442" y2="239.991442"/><linearGradient id="c" gradientUnits="userSpaceOnUse" x1="-7.994286" x2="465.085714" xlink:href="#a" y1="71.991442" y2="71.991442"/><linearGradient id="d" gradientUnits="userSpaceOnUse" x1="-7.994286" x2="465.085714" xlink:href="#a" y1="407.983442" y2="407.983442"/><linearGradient id="e" gradientUnits="userSpaceOnUse" x1="-7.994286" x2="465.085714" xlink:href="#a" y1="407.991442" y2="407.991442"/><linearGradient id="f" gradientUnits="userSpaceOnUse" x1="-7.994286" x2="465.085714" xlink:href="#a" y1="249.447442" y2="249.447442"/><path d="m24.003906 239.992188c0 119.292968 96.707032 216 216 216 119.296875 0 216-96.707032 216-216 0-119.292969-96.703125-216-216-216-119.238281.132812-215.867187 96.761718-216 216zm416 0c0 110.457031-89.542968 200-200 200-110.457031 0-200-89.542969-200-200 0-110.457032 89.542969-200 200-200 110.40625.121093 199.878906 89.59375 200 200zm0 0" fill="url(#b)"/><path d="m134.070312.230469c-4.375 1.089843-107.359374 28-133.824218 133.824219-1.066406 4.285156 1.539062 8.625 5.824218 9.695312.632813.160156 1.28125.238281 1.933594.242188 3.671875-.003907 6.867188-2.503907 7.753906-6.066407 24.097657-96.335937 121.214844-121.933593 122.199219-122.175781 4.257813-1.097656 6.828125-5.425781 5.761719-9.6875-1.070312-4.265625-5.378906-6.867188-9.648438-5.832031zm0 0" fill="url(#c)"/><path d="m345.941406.230469c-4.238281-.953125-8.464844 1.652343-9.519531 5.871093-1.050781 4.214844 1.457031 8.5 5.648437 9.648438 96.335938 24.089844 121.933594 121.210938 122.175782 122.195312.894531 3.554688 4.09375 6.046876 7.757812 6.046876.660156 0 1.316406-.082032 1.953125-.25 4.277344-1.074219 6.878907-5.40625 5.816407-9.6875-1.097657-4.375-27.984376-107.359376-133.832032-133.824219zm0 0" fill="url(#c)"/><path d="m473.941406 336.230469c-4.285156-1.066407-8.625 1.539062-9.695312 5.824219-24.089844 96.335937-121.207032 121.9375-122.191406 122.175781-3.921876.984375-6.492188 4.734375-5.996094 8.746093.496094 4.007813 3.90625 7.019532 7.945312 7.015626.65625 0 1.308594-.082032 1.945313-.242188 4.375-1.085938 107.359375-28 133.824219-133.824219 1.066406-4.285156-1.542969-8.628906-5.832032-9.695312zm0 0" fill="url(#d)"/><path d="m.269531 346.046875c1.167969 4.367187 29.726563 107.335937 141.902344 133.738281.601563.132813 1.21875.203125 1.832031.207032 4.070313.003906 7.492188-3.042969 7.960938-7.082032.464844-4.042968-2.171875-7.789062-6.136719-8.710937-102.621094-24.144531-129.824219-121.296875-130.09375-122.273438-1.136719-4.269531-5.523437-6.808593-9.792969-5.671875-4.269531 1.140625-6.808594 5.523438-5.671875 9.792969zm0 0" fill="url(#e)"/><path d="m174.652344 168.289062 16.058594-40.128906c.375-.949218.566406-1.957031.566406-2.976562.191406-12.636719-6.441406-24.390625-17.351563-30.765625-10.910156-6.375-24.410156-6.375-35.320312 0-10.910157 6.375-17.542969 18.128906-17.351563 30.765625.003906 1.019531.199219 2.027344.574219 2.976562l15.777344 39.511719c-17.039063 3.847656-28.527344 13.34375-28.527344 25.046875.40625 7.390625 4.515625 14.074219 10.925781 17.769531v93.503907c0 4.417968 3.582032 8 8 8h32v60c-2.316406 2.765624-3.601562 6.253906-3.628906 9.863281 0 18.582031 32.503906 26.902343 64.726562 26.902343 25.601563 0 51.273438-5.269531 60.800782-16.726562h38.101562c4.421875 0 8-3.582031 8-8v-103.855469c11.226563 3.863281 23.035156 5.757813 34.90625 5.601563 27.472656 0 55.273438-9.25 55.273438-26.921875 0-14.65625-19.144532-23.488281-41.355469-26.078125l19.203125-47.9375c.375-.945313.566406-1.953125.566406-2.96875.191406-12.632813-6.441406-24.390625-17.351562-30.765625-10.910156-6.371094-24.410156-6.371094-35.320313 0-10.910156 6.375-17.542969 18.132812-17.351562 30.765625 0 1.015625.195312 2.023437.574219 2.96875l19.257812 48.304687c-21.089844 2.957031-38.785156 11.671875-38.785156 25.75.023437 1.738281.324218 3.457031.898437 5.097657h-28.515625v-72c0-4.417969-3.578125-8-8-8h-73.597656c-5.515625-8.183594-14.0625-13.835938-23.753906-15.703126zm-37.34375-44.511718c.738281-9.925782 9.003906-17.605469 18.957031-17.605469s18.21875 7.679687 18.957031 17.605469l-16.816406 42.132812c-1.144531-.046875-2.289062-.09375-3.464844-.09375h-.800781zm6.402344 59.046875 5.144531 12.863281c1.214843 3.039062 4.15625 5.027344 7.425781 5.027344 3.273438 0 6.214844-1.988282 7.429688-5.027344l4.933593-12.351562c5.902344.824218 11.363281 3.574218 15.546875 7.816406-.078125.273437-.140625.554687-.1875.839844.050782.605468.171875 1.203124.363282 1.785156-1.785157 3.886718-12.800782 9.847656-29.457032 9.847656-18.199218 0-29.808594-7.160156-29.808594-10.90625 0-2.894531 7.007813-7.808594 18.59375-9.894531zm77.40625 209.894531c-28.550782 0-44.800782-7-48.160157-10.582031.726563-.589844 1.339844-1.300781 1.816407-2.105469 10.820312-5.5 22.746093-8.476562 34.878906-8.703125l5.386718 13.457031c1.214844 3.035156 4.15625 5.027344 7.425782 5.027344 3.273437 0 6.214844-1.992188 7.429687-5.027344l5.277344-13.210937c20.503906 1.855469 32.273437 7.359375 34.464844 10.242187-2.679688 3.472656-19.175781 10.902344-48.535157 10.902344zm-17.597657-79.855469c.734375-9.925781 9-17.601562 18.953125-17.601562s18.222656 7.675781 18.957032 17.601562l-16.800782 42.089844c-1.152344 0-2.3125-.058594-3.472656-.058594h-.796875zm158.039063-149.96875c9.949218.011719 18.210937 7.679688 18.960937 17.601563l-18.960937 47.40625-18.953125-47.40625c.75-9.917969 9.007812-17.585938 18.953125-17.601563zm-8.984375 85.601563 1.597656 3.886718c1.214844 3.039063 4.160156 5.03125 7.429687 5.03125 3.273438 0 6.214844-1.992187 7.429688-5.03125l1.644531-4.128906c19.578125 1.386719 30.859375 7.679688 31.539063 10.609375-.753906 3.296875-14.890625 10.921875-39.265625 10.921875s-38.625-7.683594-39.273438-10.882812c.523438-2.742188 10.882813-8.640625 28.898438-10.375zm-80.570313 31.496094h40v96h-27.40625c-4.625-11.03125-22.398437-17.472657-43.199218-19.921876l15.519531-38.824218c.378906-.941406.574219-1.949219.574219-2.964844.191406-12.636719-6.4375-24.394531-17.351563-30.765625-10.910156-6.375-24.410156-6.375-35.320313 0-10.910156 6.371094-17.542968 18.128906-17.351562 30.765625 0 1.015625.191406 2.023438.570312 2.964844l15.40625 38.519531c-9.355468.796875-18.578124 2.773437-27.441406 5.882813v-57.65625c0-4.417969-3.578125-8-8-8h-32v-78.617188c6.1875 1.523438 12.535156 2.277344 18.90625 2.25 21.792969 0 39.0625-8.066406 44.207032-19.632812h64.886718v72c0 4.417968 3.582032 8 8 8zm0 0" fill="url(#f)"/></svg>